<?xml version="1.0" encoding="UTF-8"?>
<svg version="1.1" xmlns="http://www.w3.org/2000/svg" width="640" height="640">
<path d="M0 0 C0.67590185 -0.00155999 1.35180371 -0.00311998 2.04818743 -0.00472724 C4.32981003 -0.00873938 6.61136694 -0.00554675 8.89299011 -0.00241089 C10.52209513 -0.00376487 12.15119983 -0.00554479 13.78030396 -0.00772095 C18.21839589 -0.0122967 22.65646469 -0.01050486 27.09455705 -0.00734186 C31.73185176 -0.0048177 36.36914443 -0.00715608 41.00643921 -0.00872803 C48.7987046 -0.0105501 56.59096053 -0.00814299 64.38322449 -0.00338745 C73.39622025 0.00204952 82.40919337 0.00029677 91.42218858 -0.00521386 C99.1512963 -0.00975073 106.88039721 -0.01039254 114.60950583 -0.00777519 C119.22960162 -0.00621485 123.84968677 -0.00601191 128.46978188 -0.00931168 C132.81582639 -0.0121985 137.16184172 -0.01019969 141.50788307 -0.00441742 C143.10424755 -0.00309395 144.70061449 -0.00347696 146.296978 -0.00568008 C148.47414165 -0.00840789 150.65121148 -0.00499036 152.82836914 0 C154.04752423 0.00037703 155.26667933 0.00075405 156.52277851 0.0011425 C159.08440714 0.10574038 161.17267212 0.36789304 163.60466003 1.12698364 C163.07544301 5.39561327 162.14408644 8.43572275 159.93669128 12.11917114 C159.10186218 13.52960693 159.10186218 13.52960693 158.25016785 14.96853638 C157.34282898 16.47009277 157.34282898 16.47009277 156.41716003 18.00198364 C155.13694371 20.15677211 153.85700369 22.31172476 152.57731628 24.46682739 C151.91876648 25.5688147 151.26021667 26.670802 150.58171082 27.80618286 C147.46772027 33.0366718 144.41333785 38.30152855 141.35466003 43.56448364 C137.71302845 49.8150001 134.05950305 56.05801399 130.37809753 62.28518677 C127.29210088 67.50582221 124.23836451 72.72814392 121.35466003 78.06448364 C119.42762248 81.62460387 117.49144024 85.17637493 115.47966003 88.68948364 C115.02333191 89.49514771 114.56700378 90.30081177 114.09684753 91.13088989 C112.45324102 93.32953631 111.12972182 94.12454495 108.60466003 95.12698364 C104.32796711 92.14804581 102.11149471 88.97133961 99.85466003 84.37698364 C99.17473175 83.03854083 98.49234764 81.70134336 97.80778503 80.36526489 C97.45393738 79.67255493 97.10008972 78.97984497 96.73551941 78.2661438 C95.57575731 76.07231057 94.34829258 73.93308686 93.08903503 71.79495239 C92.67492371 71.08757935 92.26081238 70.3802063 91.83415222 69.65139771 C91.03185931 68.28960267 90.22038989 66.93316047 89.39860535 65.58303833 C87.07197567 61.59306352 85.93869095 58.74350723 86.60466003 54.12698364 C87.66325378 51.96682739 87.66325378 51.96682739 89.04216003 50.06448364 C91.19660859 47.06298693 91.95411656 44.75517244 92.60466003 41.12698364 C83.00787078 41.18814848 73.41138049 41.26522073 63.81489086 41.36269855 C59.35900868 41.40745792 54.90321911 41.44670157 50.44718933 41.47341919 C46.14818804 41.49939692 41.84954208 41.53975953 37.55076027 41.59016991 C35.90933458 41.6068762 34.26784738 41.618367 32.6263485 41.62459755 C30.32992022 41.63419811 28.03440872 41.66220679 25.73820496 41.6946106 C24.43026474 41.70571365 23.12232452 41.71681671 21.77474976 41.72825623 C18.64661972 41.86664517 18.64661972 41.86664517 16.67910767 43.50267029 C15.13018555 45.84427802 15.25753673 47.37035482 15.60466003 50.12698364 C16.48134505 52.31213992 16.48134505 52.31213992 17.79997253 54.38479614 C18.26540466 55.16943237 18.73083679 55.9540686 19.21037292 56.76248169 C19.71173767 57.58401733 20.21310242 58.40555298 20.72966003 59.25198364 C21.75287032 60.9687914 22.77501452 62.68623501 23.79606628 64.40432739 C24.28736023 65.22529907 24.77865417 66.04627075 25.28483582 66.89212036 C26.8218023 69.49467146 28.25869594 72.14044312 29.66716003 74.81448364 C32.47310943 80.04412265 35.62297509 85.03992283 38.82756042 90.03201294 C41.76513548 94.64533432 44.4193572 99.3736084 47.01579285 104.18655396 C49.78882045 109.31844462 52.63523886 114.40941336 55.47966003 119.50198364 C56.39884216 121.14843872 56.39884216 121.14843872 57.33659363 122.82815552 C60.52175603 128.50601708 63.7640963 134.1159556 67.22966003 139.62698364 C73.87806803 150.30169045 73.87806803 150.30169045 74.60466003 154.12698364 C73.4366485 158.19370995 71.85978652 161.7931283 69.84684753 165.50588989 C69.03788025 167.00176636 69.03788025 167.00176636 68.21257019 168.52786255 C67.64070984 169.57119751 67.06884949 170.61453247 66.47966003 171.68948364 C65.89362 172.76633423 65.30757996 173.84318481 64.70378113 174.95266724 C61.11358222 181.50648774 57.36304345 187.88677214 53.36247253 194.19729614 C51.42198635 197.43143979 49.75848905 200.7377466 48.10466003 204.12698364 C45.37826875 209.70175241 42.34916372 214.92510108 39.04606628 220.17385864 C35.74379495 225.46546722 32.62211496 230.86456518 29.47966003 236.25198364 C28.89370056 237.25342407 28.30774109 238.2548645 27.70402527 239.28665161 C24.34685729 245.04896191 21.09298668 250.85590065 17.91764832 256.72024536 C16.36996229 259.55719011 14.75299368 262.34744063 13.10466003 265.12698364 C10.85900844 268.94360642 8.6931018 272.78476406 6.60466003 276.68948364 C4.47987765 280.58208497 2.31673751 284.44464554 0.04216003 288.25198364 C-0.49537903 289.16206177 -1.03291809 290.07213989 -1.58674622 291.00979614 C-3.76780809 293.56300464 -5.10993193 293.84617954 -8.39533997 294.12698364 C-15.23154869 282.55585986 -22.02228988 270.9633251 -28.57502747 259.22854614 C-32.67699149 251.88743887 -36.86489121 244.61911934 -41.22663879 237.4289856 C-43.94270561 232.93406526 -46.46212658 228.35639656 -48.93830872 223.72463989 C-50.46303627 221.00629185 -52.12259723 218.41966492 -53.83283997 215.81448364 C-56.83858185 211.18063157 -59.29918969 206.40564509 -61.71296692 201.44216919 C-64.19108635 196.40634209 -67.03461383 191.69413417 -70.02033997 186.94729614 C-73.10910844 182.01881382 -76.05956481 177.00800348 -79.02033997 172.00198364 C-79.55868469 171.09577271 -80.09702942 170.18956177 -80.65168762 169.25588989 C-82.24800975 166.55479753 -83.82195377 163.84148583 -85.39533997 161.12698364 C-85.97896301 160.15277466 -86.56258606 159.17856567 -87.16389465 158.17483521 C-87.72238098 157.21287231 -88.28086731 156.25090942 -88.85627747 155.25979614 C-89.36722961 154.39499634 -89.87818176 153.53019653 -90.40461731 152.63919067 C-91.60532048 149.59452935 -91.39025276 148.21052974 -90.39533997 145.12698364 C-89.50666809 143.14505005 -89.50666809 143.14505005 -88.42658997 141.22854614 C-88.0245636 140.50860474 -87.62253723 139.78866333 -87.20832825 139.04690552 C-86.55839905 137.91091919 -86.55839905 137.91091919 -85.89533997 136.75198364 C-85.45045227 135.96630005 -85.00556458 135.18061646 -84.54719543 134.37112427 C-83.17128991 131.95171406 -81.78355768 129.53934492 -80.39533997 127.12698364 C-79.75773743 126.00308228 -79.75773743 126.00308228 -79.10725403 124.85647583 C-77.92364369 122.77276024 -76.72511348 120.69851908 -75.52033997 118.62698364 C-75.16391418 117.99872681 -74.8074884 117.37046997 -74.44026184 116.72317505 C-72.50943159 113.46058099 -71.05630744 111.37466762 -67.39533997 110.12698364 C-63.42582631 114.44674851 -60.77285872 118.93866535 -58.03596497 124.11526489 C-56.40322621 127.11250676 -54.6494612 129.98794526 -52.83283997 132.87698364 C-47.30785011 141.76318406 -42.25116069 150.91447008 -37.13166809 160.03811646 C-35.38714722 163.14155825 -33.63489094 166.24049435 -31.87971497 169.33792114 C-31.30632385 170.34999634 -30.73293274 171.36207153 -30.14216614 172.40481567 C-29.05678725 174.32007912 -27.9710408 176.23513434 -26.88484192 178.14993286 C-24.31115178 182.69748965 -21.77464079 187.26062868 -19.28987122 191.85745239 C-16.38067641 197.21227072 -13.20082882 202.33032423 -9.93440247 207.47463989 C-8.39533997 210.12698364 -8.39533997 210.12698364 -8.39533997 212.12698364 C-6.74533997 211.79698364 -5.09533997 211.46698364 -3.39533997 211.12698364 C-3.1568634 210.29553833 -2.91838684 209.46409302 -2.67268372 208.60745239 C-1.18453208 204.5525805 0.80582189 201.11821671 3.04216003 197.43948364 C3.9426548 195.93472698 4.84236446 194.42950026 5.74137878 192.92385864 C6.20979187 192.14204224 6.67820496 191.36022583 7.16081238 190.55471802 C10.07740673 185.65065745 12.91163663 180.69849942 15.75627136 175.75247192 C18.58863314 170.8403255 21.49305917 165.98965202 24.58122253 161.23245239 C25.95097304 158.41453056 26.4638896 156.27085673 26.60466003 153.12698364 C25.30975831 149.89139704 25.30975831 149.89139704 23.22966003 146.68948364 C22.67773987 145.77235596 22.67773987 145.77235596 22.1146698 144.83670044 C20.95998396 142.9236187 19.78413764 141.02485682 18.60466003 139.12698364 C17.24608391 136.9005016 15.89202386 134.6712585 14.54216003 132.43948364 C14.18476746 131.85142944 13.82737488 131.26337524 13.45915222 130.65750122 C8.77876482 122.87945189 4.45078015 114.89663766 0.09660339 106.93289185 C-3.3511549 100.66245553 -6.93687425 94.55094125 -10.85481262 88.5617981 C-12.40327664 86.11443968 -13.79057973 83.62335897 -15.14533997 81.06448364 C-18.33592247 75.08860884 -21.87783184 69.34434732 -25.43733215 63.58377075 C-26.33897438 62.12333496 -27.23688077 60.66058489 -28.13069153 59.19534302 C-28.94941528 57.85630293 -29.77886315 56.52373682 -30.6209259 55.19924927 C-32.7658927 51.70919774 -34.18574204 49.23048776 -33.39533997 45.12698364 C-31.92658997 42.28713989 -31.92658997 42.28713989 -29.89533997 39.18948364 C-29.15111935 38.03063055 -28.40899486 36.87042912 -27.66877747 35.70901489 C-27.28818176 35.11556274 -26.90758606 34.5221106 -26.51545715 33.91067505 C-24.7607923 31.11652043 -23.14351823 28.24901538 -21.52033997 25.37698364 C-18.37517355 19.83073591 -15.18529407 14.31328022 -11.95783997 8.81448364 C-11.52036438 8.06650513 -11.08288879 7.31852661 -10.63215637 6.54788208 C-6.78304116 0.00209961 -6.78304116 0.00209961 0 0 Z " fill="#FBFBFB" transform="translate(236.3953399658203,213.87301635742188)"/>
<path d="M0 0 C2.23828125 0.0625 2.23828125 0.0625 5 1 C6.64224755 3.33997424 7.90930663 5.47143224 9.1875 8 C9.95832853 9.45971403 10.7318646 10.91800085 11.5078125 12.375 C11.9090332 13.13425781 12.31025391 13.89351562 12.72363281 14.67578125 C14.01254841 17.02285021 15.38529076 19.29224671 16.8046875 21.5625 C17.49461792 22.67625 17.49461792 22.67625 18.19848633 23.8125 C19.08678665 25.23708759 19.98713212 26.65425718 20.90112305 28.0625 C23.92173198 32.98292719 24.77418583 36.21941243 24 42 C22.77297932 44.52424403 21.50962105 46.65958454 20 49 C18.90820472 50.92736696 17.82862047 52.86167563 16.7578125 54.80078125 C16.16613281 55.86103516 15.57445312 56.92128906 14.96484375 58.01367188 C13.74511988 60.20062901 12.52635865 62.38812333 11.30859375 64.57617188 C8.05513523 70.40205041 4.72905184 76.16782216 1.27294922 81.87573242 C-0.22702076 84.37884688 -1.63024012 86.9235469 -3 89.5 C-5.80877979 94.78318104 -8.90385723 99.88213627 -12 105 C-20.58690551 119.13302805 -20.58690551 119.13302805 -28.64453125 133.5703125 C-30.15268312 136.2736856 -31.80764514 138.84573746 -33.5 141.4375 C-35.85930443 145.07544367 -37.91695304 148.7208584 -39.80078125 152.625 C-42.83648166 158.76953318 -46.19609223 164.66781379 -49.6875 170.5625 C-50.93127103 172.67821999 -52.17475758 174.79410724 -53.41796875 176.91015625 C-54.3313501 178.46114014 -54.3313501 178.46114014 -55.26318359 180.04345703 C-57.69558085 184.18407142 -60.0998238 188.3406522 -62.5 192.5 C-65.45204386 197.61278433 -68.41733181 202.71725849 -71.40625 207.80859375 C-77.49431967 218.18693061 -83.47802483 228.59961005 -89.22509766 239.17089844 C-92.35314928 244.89844866 -95.64933315 250.46976476 -99.1484375 255.98046875 C-101.06228587 259.10157591 -102.83578179 262.27698659 -104.60351562 265.48217773 C-107.20138584 270.16606506 -109.87360564 274.80542306 -112.5625 279.4375 C-113.40844727 280.92540039 -113.40844727 280.92540039 -114.27148438 282.44335938 C-114.82255859 283.38888672 -115.37363281 284.33441406 -115.94140625 285.30859375 C-116.43326416 286.16251709 -116.92512207 287.01644043 -117.43188477 287.89624023 C-119.11815452 290.15851433 -120.40048288 290.9842621 -123 292 C-127.61008983 287.88087641 -130.383506 283.31296504 -133.375 277.9375 C-134.33373911 276.23256859 -135.29337464 274.52814094 -136.25390625 272.82421875 C-136.9502417 271.58551025 -136.9502417 271.58551025 -137.66064453 270.32177734 C-138.83579699 268.28464648 -140.05827412 266.30320473 -141.33984375 264.33203125 C-146.05030286 256.97252188 -146.05030286 256.97252188 -145.8125 252.375 C-144.37666204 249.70137069 -142.88631148 247.11761179 -141.31640625 244.5234375 C-137.86762854 238.79545397 -134.49078216 233.02704736 -131.125 227.25 C-130.50641113 226.18942383 -129.88782227 225.12884766 -129.25048828 224.03613281 C-126.0968816 218.62308989 -122.96355323 213.20038805 -119.875 207.75 C-116.63567156 202.04626867 -113.26386153 196.42848959 -109.875 190.8125 C-106.34662397 184.96123138 -102.88988818 179.10326108 -99.671875 173.07421875 C-92.97257302 160.75564244 -85.83788519 148.66624751 -78.70703125 136.59375 C-75.38782347 130.97062153 -72.10101188 125.32861624 -68.8125 119.6875 C-68.24225098 118.70934326 -67.67200195 117.73118652 -67.08447266 116.72338867 C-65.95914297 114.79283537 -64.83414218 112.86209031 -63.70947266 110.93115234 C-62.53946229 108.92499061 -61.36714968 106.92017028 -60.19287109 104.91650391 C-57.57731323 100.44976181 -54.97139706 95.98254738 -52.47265625 91.44921875 C-50.12112882 87.18390239 -47.6615036 82.98698796 -45.19042969 78.79003906 C-37.11629801 65.07526052 -29.05973595 51.27276901 -22 37 C-21.34 37 -20.68 37 -20 37 C-19.92136719 36.48566406 -19.84273438 35.97132813 -19.76171875 35.44140625 C-18.67191721 31.9484526 -16.73172577 29.02320714 -14.8125 25.9375 C-11.48368554 20.49503712 -8.30267196 15.00988869 -5.28515625 9.38671875 C-3.58162346 6.22301499 -1.79750693 3.11106969 0 0 Z " fill="#FAFAFA" transform="translate(471,215)"/>
<path d="M0 0 C1.62984454 0.00090213 3.25969535 -0.00214936 4.88952637 -0.0088501 C9.307529 -0.01569723 13.72336161 0.03306572 18.14090967 0.09212065 C22.76473491 0.14473131 27.38858619 0.14702004 32.01266479 0.15493774 C39.77542911 0.17515432 47.53739284 0.22779396 55.29980469 0.30371094 C66.24877208 0.41076596 77.19744975 0.461241 88.1468451 0.49945903 C102.81089952 0.55347061 117.47518681 0.62423864 132.13873291 0.75984955 C133.72702559 0.77396424 135.31533348 0.78647285 136.90365219 0.79726791 C139.0696404 0.81243983 141.23548096 0.83373353 143.40139771 0.85678101 C144.6140587 0.86754858 145.8267197 0.87831615 147.07612801 0.88941002 C149.62145078 1.0123552 151.72393459 1.28837941 154.14404297 2.03759766 C153.61330528 6.50726968 152.52981202 9.59506622 150.20263672 13.43603516 C149.61933594 14.40927734 149.03603516 15.38251953 148.43505859 16.38525391 C147.82339844 17.38427734 147.21173828 18.38330078 146.58154297 19.41259766 C145.96601563 20.43482422 145.35048828 21.45705078 144.71630859 22.51025391 C143.20063425 25.0246284 141.67638729 27.53336006 140.14404297 30.03759766 C138.75686241 25.71884217 140.10514495 24.03697454 142.14404297 20.03759766 C142.29873047 18.21228516 142.29873047 18.21228516 142.45654297 16.35009766 C142.79685547 14.71041016 142.79685547 14.71041016 143.14404297 13.03759766 C145.12650695 12.00326862 147.12817613 11.00521374 149.14404297 10.03759766 C150.13404297 7.72759766 151.12404297 5.41759766 152.14404297 3.03759766 C98.68404297 3.03759766 45.22404297 3.03759766 -9.85595703 3.03759766 C-9.85595703 4.35759766 -9.85595703 5.67759766 -9.85595703 7.03759766 C-11.83595703 8.02759766 -11.83595703 8.02759766 -13.85595703 9.03759766 C-13.85595703 9.69759766 -13.85595703 10.35759766 -13.85595703 11.03759766 C-15.17595703 10.70759766 -16.49595703 10.37759766 -17.85595703 10.03759766 C-18.18595703 10.69759766 -18.51595703 11.35759766 -18.85595703 12.03759766 C-17.86595703 12.03759766 -16.87595703 12.03759766 -15.85595703 12.03759766 C-15.85595703 12.69759766 -15.85595703 13.35759766 -15.85595703 14.03759766 C-17.50595703 14.03759766 -19.15595703 14.03759766 -20.85595703 14.03759766 C-21.18595703 14.69759766 -21.51595703 15.35759766 -21.85595703 16.03759766 C-22.51595703 16.03759766 -23.17595703 16.03759766 -23.85595703 16.03759766 C-20.19595658 1.76359588 -13.73212383 -0.2846051 0 0 Z " fill="#B5B5B5" transform="translate(245.85595703125,212.96240234375)"/>
<path d="M0 0 C1.02814316 0.00222061 2.05628632 0.00444122 3.11558533 0.00672913 C4.85727745 0.00684242 4.85727745 0.00684242 6.63415527 0.00695801 C8.52943214 0.01469994 8.52943214 0.01469994 10.46299744 0.02259827 C12.39193092 0.02472069 12.39193092 0.02472069 14.35983276 0.02688599 C17.78427561 0.03071034 21.20867628 0.0405399 24.63310242 0.05158997 C28.12522308 0.06180587 31.61735053 0.06638399 35.10948181 0.07142639 C41.96561897 0.08216225 48.82172806 0.09923767 55.67784119 0.12025452 C55.67784119 0.78025452 55.67784119 1.44025452 55.67784119 2.12025452 C56.63497009 2.10285217 56.63497009 2.10285217 57.61143494 2.08509827 C58.437724 2.07607483 59.26401306 2.06705139 60.11534119 2.05775452 C60.93905212 2.04615295 61.76276306 2.03455139 62.61143494 2.02259827 C64.67784119 2.12025452 64.67784119 2.12025452 65.67784119 3.12025452 C66.14427228 8.48421211 66.14427228 8.48421211 64.30284119 10.99525452 C62.67784119 12.12025452 62.67784119 12.12025452 60.67784119 12.12025452 C61.33784119 9.48025452 61.99784119 6.84025452 62.67784119 4.12025452 C53.08105194 4.18141935 43.48456164 4.25849161 33.88807201 4.35596943 C29.43218983 4.40072879 24.97640026 4.43997244 20.52037048 4.46669006 C16.22136919 4.49266779 11.92272323 4.5330304 7.62394142 4.58344078 C5.98251573 4.60014707 4.34102853 4.61163788 2.69952965 4.61786842 C0.40310138 4.62746898 -1.89241012 4.65547766 -4.18861389 4.68788147 C-5.49655411 4.69898453 -6.80449432 4.71008759 -8.15206909 4.7215271 C-11.28035378 4.85969979 -11.28035378 4.85969979 -13.24702454 6.49690247 C-14.80268967 8.8458111 -14.68028461 10.35291878 -14.32215881 13.12025452 C-13.3636677 15.42173432 -13.3636677 15.42173432 -11.95106506 17.62416077 C-11.45928772 18.44722717 -10.96751038 19.27029358 -10.46083069 20.11830139 C-9.68062561 21.38770569 -9.68062561 21.38770569 -8.88465881 22.68275452 C-7.86071029 24.36888199 -6.84100447 26.05759509 -5.82606506 27.74916077 C-5.37046204 28.49238586 -4.91485901 29.23561096 -4.44544983 30.00135803 C-3.35761432 32.05337377 -2.77345436 33.85158828 -2.32215881 36.12025452 C-3.82215881 34.74525452 -3.82215881 34.74525452 -5.32215881 33.12025452 C-5.32215881 32.46025452 -5.32215881 31.80025452 -5.32215881 31.12025452 C-6.97215881 31.12025452 -8.62215881 31.12025452 -10.32215881 31.12025452 C-10.32215881 28.81025452 -10.32215881 26.50025452 -10.32215881 24.12025452 C-10.98215881 24.12025452 -11.64215881 24.12025452 -12.32215881 24.12025452 C-12.32215881 23.46025452 -12.32215881 22.80025452 -12.32215881 22.12025452 C-12.98215881 22.12025452 -13.64215881 22.12025452 -14.32215881 22.12025452 C-14.32215881 20.80025452 -14.32215881 19.48025452 -14.32215881 18.12025452 C-14.98215881 18.12025452 -15.64215881 18.12025452 -16.32215881 18.12025452 C-18.12056126 14.29864932 -18.93724679 11.33800061 -18.32215881 7.12025452 C-16.44715881 4.30775452 -16.44715881 4.30775452 -13.32215881 2.12025452 C-10.66859281 1.59857823 -8.13241212 1.37275022 -5.43153381 1.26087952 C-2.84035081 1.08813398 -2.66363719 0.1379382 0 0 Z " fill="#F4F4F4" transform="translate(266.32215881347656,250.87974548339844)"/>
<path d="M0 0 C3.48718964 3.04995791 5.35923413 6.95762311 7.58203125 10.96142578 C9.56036766 14.50146526 11.59241648 17.985012 13.74609375 21.421875 C14.20363037 22.1629248 14.66116699 22.90397461 15.13256836 23.66748047 C16.02453585 25.10743228 16.92976676 26.53927685 17.84985352 27.96142578 C20.88779955 32.92111864 21.78712161 36.17761513 21 42 C19.7526692 44.54241975 18.54502391 46.67139102 17 49 C16.27747167 50.2435196 15.56395512 51.49231743 14.859375 52.74609375 C12.90625 56.1640625 10.953125 59.58203125 9 63 C8.505 61.515 8.505 61.515 8 60 C9.1796875 57.73046875 9.1796875 57.73046875 10.875 55.1875 C13.23678407 51.42837268 14.88907403 48.54796482 15 44 C14.505 42.515 14.505 42.515 14 41 C14.66 40.01 15.32 39.02 16 38 C16.38499891 36.34450469 16.72793135 34.6777567 17 33 C16.34 33 15.68 33 15 33 C13.59756552 30.49565271 12.81271396 28.30079879 12.0625 25.5 C11.07201213 22.23721643 10.0533969 20.61341424 8 18 C8 17.01 8 16.02 8 15 C7.34 15 6.68 15 6 15 C5.67 13.02 5.34 11.04 5 9 C4.34 9 3.68 9 3 9 C0.56839395 5.63316085 0 4.26649636 0 0 Z " fill="#AFAFAF" transform="translate(474,215)"/>
<path d="M0 0 C3.01532543 2.78632871 4.95726743 5.40930474 6.8359375 9.05078125 C10.42921516 15.85000338 14.36525285 22.42038695 18.3203125 29.01367188 C27 43.57876069 27 43.57876069 27 47 C25 47 25 47 22.375 44.6875 C20 42 20 42 20 39 C19.34 39 18.68 39 18 39 C17.79503906 38.31292969 17.59007812 37.62585938 17.37890625 36.91796875 C17.10949219 36.01691406 16.84007812 35.11585938 16.5625 34.1875 C16.29566406 33.29417969 16.02882812 32.40085937 15.75390625 31.48046875 C15.19612127 29.64526945 14.60655425 27.81966274 14 26 C13.34 26.33 12.68 26.66 12 27 C11.34 27.33 10.68 27.66 10 28 C10 27.01 10 26.02 10 25 C9.34 25 8.68 25 8 25 C8.0825 23.7625 8.165 22.525 8.25 21.25 C8.26731616 17.97724568 8.25121458 17.29983676 6.0625 14.6875 C5.381875 14.130625 4.70125 13.57375 4 13 C3.67 12.01 3.34 11.02 3 10 C2.34 9.67 1.68 9.34 1 9 C1.33 7.35 1.66 5.7 2 4 C1.34 4 0.68 4 0 4 C0 2.68 0 1.36 0 0 Z M-1 9 C-0.01 9.33 0.98 9.66 2 10 C1.67 10.99 1.34 11.98 1 13 C0.01 12.67 -0.98 12.34 -2 12 C-1.67 11.01 -1.34 10.02 -1 9 Z " fill="#BCBCBC" transform="translate(179,341)"/>
<path d="M0 0 C0.67387253 -0.00058411 1.34774506 -0.00116821 2.04203796 -0.00177002 C4.25008239 0.00099737 6.45674481 0.03202167 8.66455078 0.06347656 C10.20296491 0.07094383 11.7413886 0.07663447 13.27981567 0.08062744 C17.31435754 0.09584575 21.34831661 0.13509379 25.38262939 0.17944336 C29.50516884 0.22047881 33.62780314 0.23865604 37.75048828 0.25878906 C45.8288797 0.30159259 53.90679884 0.36979675 61.98486328 0.45410156 C61.98486328 0.78410156 61.98486328 1.11410156 61.98486328 1.45410156 C60.71699226 1.46290092 60.71699226 1.46290092 59.42350769 1.47187805 C51.46282063 1.52975098 43.50241577 1.6017963 35.54200268 1.68981647 C31.4493271 1.73456875 27.35675218 1.77381388 23.26391602 1.80053711 C19.31502613 1.82652205 15.36652262 1.86688956 11.41787148 1.91728783 C9.91042189 1.93398927 8.40290543 1.94548312 6.89537621 1.95171547 C4.78571318 1.96132146 2.67704589 1.98933575 0.56762695 2.02172852 C-1.23439934 2.0383831 -1.23439934 2.0383831 -3.0728302 2.05537415 C-6.00133156 2.21512883 -6.00133156 2.21512883 -7.90557861 3.83074951 C-9.50752125 6.17449055 -9.37573615 7.66765144 -9.01513672 10.45410156 C-8.0566456 12.75558136 -8.0566456 12.75558136 -6.64404297 14.95800781 C-6.15226563 15.78107422 -5.66048828 16.60414063 -5.15380859 17.45214844 C-4.37360352 18.72155273 -4.37360352 18.72155273 -3.57763672 20.01660156 C-2.55368819 21.70272904 -1.53398238 23.39144213 -0.51904297 25.08300781 C-0.06343994 25.82623291 0.39216309 26.56945801 0.86157227 27.33520508 C1.94940778 29.38722082 2.53356774 31.18543533 2.98486328 33.45410156 C1.48486328 32.07910156 1.48486328 32.07910156 -0.01513672 30.45410156 C-0.01513672 29.79410156 -0.01513672 29.13410156 -0.01513672 28.45410156 C-1.66513672 28.45410156 -3.31513672 28.45410156 -5.01513672 28.45410156 C-5.01513672 26.14410156 -5.01513672 23.83410156 -5.01513672 21.45410156 C-5.67513672 21.45410156 -6.33513672 21.45410156 -7.01513672 21.45410156 C-7.01513672 20.79410156 -7.01513672 20.13410156 -7.01513672 19.45410156 C-7.67513672 19.45410156 -8.33513672 19.45410156 -9.01513672 19.45410156 C-9.01513672 18.13410156 -9.01513672 16.81410156 -9.01513672 15.45410156 C-9.67513672 15.45410156 -10.33513672 15.45410156 -11.01513672 15.45410156 C-12.80544422 11.64969813 -13.72933976 8.65004441 -13.01513672 4.45410156 C-8.6529488 0.82812688 -5.61233398 -0.041116 0 0 Z " fill="#797979" transform="translate(261.01513671875,253.5458984375)"/>
<path d="M0 0 C0.66 0 1.32 0 2 0 C-1.75717206 9.92185244 -7.5273468 18.9493826 -13.140625 27.90234375 C-15.33471941 31.55763129 -17.20752837 35.30303353 -18.9921875 39.171875 C-20 41 -20 41 -22 42 C-21.34 38.37 -20.68 34.74 -20 31 C-19.34 31 -18.68 31 -18 31 C-18.33 29.68 -18.66 28.36 -19 27 C-17.68 26.67 -16.36 26.34 -15 26 C-15.33 24.68 -15.66 23.36 -16 22 C-15.01 21.34 -14.02 20.68 -13 20 C-12.67 19.01 -12.34 18.02 -12 17 C-11.01 16.67 -10.02 16.34 -9 16 C-9 14.68 -9 13.36 -9 12 C-8.34 12 -7.68 12 -7 12 C-7.66 10.68 -8.32 9.36 -9 8 C-9.99 8.495 -9.99 8.495 -11 9 C-9.25 4.125 -9.25 4.125 -7 3 C-7 3.66 -7 4.32 -7 5 C-6.34 5 -5.68 5 -5 5 C-4.67 4.34 -4.34 3.68 -4 3 C-3.01 3.33 -2.02 3.66 -1 4 C-0.67 2.68 -0.34 1.36 0 0 Z " fill="#D0D0D0" transform="translate(263,450)"/>
<path d="M0 0 C0.33 0.66 0.66 1.32 1 2 C0.15478516 3.90087891 0.15478516 3.90087891 -1.2109375 6.2265625 C-1.70964355 7.08604492 -2.20834961 7.94552734 -2.72216797 8.83105469 C-3.26760254 9.75305664 -3.81303711 10.67505859 -4.375 11.625 C-5.49018653 13.53871112 -6.60476407 15.45277725 -7.71875 17.3671875 C-8.275625 18.31948242 -8.8325 19.27177734 -9.40625 20.25292969 C-11.22941944 23.39543926 -13.00139409 26.5636008 -14.76196289 29.74145508 C-24.45067255 47.22533628 -24.45067255 47.22533628 -28 49 C-28 48.01 -28 47.02 -28 46 C-27.34 46 -26.68 46 -26 46 C-25.73316406 45.29488281 -25.46632813 44.58976562 -25.19140625 43.86328125 C-23.94133077 40.8590015 -22.46859642 38.05783555 -20.9375 35.1875 C-18.43272093 30.2630557 -17.31003088 26.4772122 -17 21 C-16.67 20.67 -16.34 20.34 -16 20 C-16.40929986 17.94603274 -16.40929986 17.94603274 -17 16 C-16.34 16 -15.68 16 -15 16 C-14.67 15.67 -14.34 15.34 -14 15 C-12.7934375 14.87625 -12.7934375 14.87625 -11.5625 14.75 C-10.716875 14.5025 -9.87125 14.255 -9 14 C-7.80161791 11.67145537 -7.80161791 11.67145537 -7 9 C-5.5 6.6875 -5.5 6.6875 -4 5 C-3.34 5 -2.68 5 -2 5 C-1.34 3.35 -0.68 1.7 0 0 Z " fill="#E5E5E5" transform="translate(374,260)"/>
<path d="M0 0 C0.99 0 1.98 0 3 0 C3.99 2.97 4.98 5.94 6 9 C6.66 9 7.32 9 8 9 C8.33 10.32 8.66 11.64 9 13 C8.01 13.495 8.01 13.495 7 14 C7 13.34 7 12.68 7 12 C6.34 12 5.68 12 5 12 C5.33 13.65 5.66 15.3 6 17 C5.01 16.67 4.02 16.34 3 16 C2.3125 13.9375 2.3125 13.9375 2 12 C0.68 12 -0.64 12 -2 12 C-2.66 13.65 -3.32 15.3 -4 17 C-4.66 17 -5.32 17 -6 17 C-6.66 17.99 -7.32 18.98 -8 20 C-8.66 20 -9.32 20 -10 20 C-10 20.66 -10 21.32 -10 22 C-10.66 21.67 -11.32 21.34 -12 21 C-11.63648438 20.40574219 -11.27296875 19.81148437 -10.8984375 19.19921875 C-7.07589437 12.89692329 -3.48255644 6.49583222 0 0 Z " fill="#EDEDED" transform="translate(471,215)"/>
<path d="M0 0 C0.66 0 1.32 0 2 0 C2 0.66 2 1.32 2 2 C2.99 2 3.98 2 5 2 C5.45375 3.11375 5.9075 4.2275 6.375 5.375 C7.72465986 8.96199008 7.72465986 8.96199008 10 11 C10.28875 11.886875 10.5775 12.77375 10.875 13.6875 C11.80912531 16.43798008 12.62790525 18.03292817 14.1875 20.375 C16.67682029 24.54230656 15.97922815 27.32983499 15 32 C14.28113187 35.43459218 13.89950796 38.48277846 14 42 C13.01 42 12.02 42 11 42 C10.01 42.495 10.01 42.495 9 43 C8.59270772 45.32156597 8.25561323 47.6568787 8 50 C7.34 50 6.68 50 6 50 C5.67 50.99 5.34 51.98 5 53 C2.4375 54.1875 2.4375 54.1875 0 55 C1.53428094 50.80049908 3.61991489 47.0305778 5.875 43.1875 C11.47525229 35.10583974 11.47525229 35.10583974 13.7890625 26.16796875 C12.72933391 23.25633821 11.30661874 20.65198062 9.8125 17.9375 C9.18859375 16.79796875 8.5646875 15.6584375 7.921875 14.484375 C7.28765625 13.33453125 6.6534375 12.1846875 6 11 C4.85340536 8.89624809 3.7075005 6.79211997 2.5625 4.6875 C1.70869951 3.12479988 0.85468083 1.56221881 0 0 Z " fill="#D8D8D8" transform="translate(249,342)"/>
<path d="M0 0 C10.15266151 -0.02312392 20.3053168 -0.04091534 30.45799923 -0.05181217 C35.17179733 -0.05704089 39.88557747 -0.06413834 44.59936523 -0.07543945 C49.14455404 -0.08626873 53.68972552 -0.09227692 58.23492622 -0.09487724 C59.97294958 -0.09673142 61.71097194 -0.10035189 63.44898796 -0.10573006 C65.87478595 -0.11294103 68.30051146 -0.11399092 70.72631836 -0.11352539 C71.45208069 -0.11712067 72.17784302 -0.12071594 72.92559814 -0.12442017 C77.88594784 -0.11405216 77.88594784 -0.11405216 79 1 C79.4664311 6.3639576 79.4664311 6.3639576 77.625 8.875 C76 10 76 10 74 10 C74.66 7.36 75.32 4.72 76 2 C66.25576086 1.97686164 56.51152822 1.95907727 46.76726723 1.94818783 C42.24294695 1.94296228 37.71864542 1.93587056 33.19433594 1.92456055 C28.83069041 1.91372005 24.46706295 1.90772068 20.103405 1.90512276 C18.43598521 1.90327061 16.76856645 1.89965401 15.10115433 1.89426994 C12.77135303 1.88704411 10.44162705 1.88600971 8.11181641 1.88647461 C7.41770157 1.88287933 6.72358673 1.87928406 6.00843811 1.87557983 C2.38176779 1.84079476 2.38176779 1.84079476 -1 3 C-0.67 2.01 -0.34 1.02 0 0 Z " fill="#CDCDCD" transform="translate(253,253)"/>
<path d="M0 0 C0.33 0.66 0.66 1.32 1 2 C-0.1075759 4.29045441 -1.27708067 6.43513648 -2.5625 8.625 C-2.9558252 9.30780029 -3.34915039 9.99060059 -3.75439453 10.6940918 C-4.64948909 12.24431146 -5.54854062 13.79225041 -6.45068359 15.33837891 C-8.18403483 18.31615943 -9.89872473 21.30432948 -11.61328125 24.29296875 C-12.86649319 26.4665463 -14.12039753 28.63972478 -15.375 30.8125 C-16.28487671 32.39635498 -16.28487671 32.39635498 -17.21313477 34.01220703 C-17.78990967 35.00462402 -18.36668457 35.99704102 -18.9609375 37.01953125 C-19.73123291 38.35141479 -19.73123291 38.35141479 -20.51708984 39.71020508 C-21.85614409 41.77786886 -23.18331089 43.351573 -25 45 C-23.98274846 38.26070857 -21.25747168 34.41436627 -17.15234375 29.0546875 C-14.12726503 24.76138158 -11.94304316 20.17898203 -9.66796875 15.45703125 C-8.07655727 12.15867257 -6.4166528 8.91553101 -4.6875 5.6875 C-3.98173828 4.36298828 -3.98173828 4.36298828 -3.26171875 3.01171875 C-2 1 -2 1 0 0 Z " fill="#808080" transform="translate(411,399)"/>
<path d="M0 0 C0.99 0.33 1.98 0.66 3 1 C3.72375763 2.71069985 4.44243474 4.4241172 5.11328125 6.15625 C6.48745068 9.01355384 8.69447645 10.87182441 11 13 C11.99 14.485 11.99 14.485 13 16 C13.99 14.68 14.98 13.36 16 12 C16.91397824 17.68697571 16.91397824 22.31302429 16 28 C12.98507448 25.21151738 11.02021876 22.57267949 9.125 18.9375 C8.6196875 17.9784375 8.114375 17.019375 7.59375 16.03125 C7.0678125 15.0309375 6.541875 14.030625 6 13 C4.37170227 10.06906409 2.73876297 7.14081484 1.1015625 4.21484375 C0 2 0 2 0 0 Z " fill="#EEEEEE" transform="translate(197,452)"/>
<path d="M0 0 C0.33 0.66 0.66 1.32 1 2 C-0.06742105 4.35075917 -1.18977303 6.55913815 -2.4375 8.8125 C-2.80077393 9.48104004 -3.16404785 10.14958008 -3.53833008 10.83837891 C-6.57016939 16.35876864 -9.82991099 21.71350534 -13.1796875 27.046875 C-15.22336587 30.36237038 -17.09097732 33.74446924 -18.89453125 37.1953125 C-20.06064515 39.09900375 -21.36407978 40.49064094 -23 42 C-23 40.68 -23 39.36 -23 38 C-22.34 38 -21.68 38 -21 38 C-20.92394531 37.32582031 -20.84789062 36.65164063 -20.76953125 35.95703125 C-19.76417033 32.09379157 -17.79505169 29.02788137 -15.6875 25.6875 C-12.52195181 20.55421223 -9.61834545 15.43810209 -7 10 C-4.97154225 6.36567986 -2.65543022 3.20482958 0 0 Z " fill="#616161" transform="translate(385,444)"/>
<path d="M0 0 C2.32081941 2.1512599 3.89042169 4.28129812 5.453125 7.02734375 C5.90453857 7.81439697 6.35595215 8.6014502 6.82104492 9.41235352 C7.2926001 10.24565186 7.76415527 11.0789502 8.25 11.9375 C9.23017066 13.6538161 10.21063955 15.36996192 11.19140625 17.0859375 C11.66852051 17.92350586 12.14563477 18.76107422 12.63720703 19.62402344 C13.8339111 21.71043046 15.04747918 23.78459119 16.27734375 25.8515625 C17.22287109 27.44097656 17.22287109 27.44097656 18.1875 29.0625 C19.01314453 30.44115234 19.01314453 30.44115234 19.85546875 31.84765625 C21 34 21 34 21 36 C20.01 36 19.02 36 18 36 C18 35.01 18 34.02 18 33 C17.01 33 16.02 33 15 33 C14.6596875 31.515 14.6596875 31.515 14.3125 30 C13.23512296 26.12301548 11.32739421 23.16401895 9.0234375 19.89453125 C8 18 8 18 8 14 C7.34 14 6.68 14 6 14 C6 13.34 6 12.68 6 12 C5.34 12 4.68 12 4 12 C3.34 9.69 2.68 7.38 2 5 C1.34 5 0.68 5 0 5 C0 3.35 0 1.7 0 0 Z " fill="#959595" transform="translate(287,327)"/>
<path d="M0 0 C1.65 0 3.3 0 5 0 C2.37087823 9.72775055 -3.78693609 18.47793454 -9 27 C-10.39195915 22.82412255 -8.82323219 20.86525224 -7 17 C-6.34 17 -5.68 17 -5 17 C-5.33 15.68 -5.66 14.36 -6 13 C-7.32 12.67 -8.64 12.34 -10 12 C-9.01 12 -8.02 12 -7 12 C-7 11.34 -7 10.68 -7 10 C-5.68 9.67 -4.36 9.34 -3 9 C-3 8.01 -3 7.02 -3 6 C-2.04788888 3.97676387 -1.05226728 1.97300116 0 0 Z " fill="#B7B7B7" transform="translate(468,293)"/>
<path d="M0 0 C1.15941038 3.47823115 0.70820884 5.45895578 0 9 C-0.66 9 -1.32 9 -2 9 C-2.66 10.65 -3.32 12.3 -4 14 C-4.66 14 -5.32 14 -6 14 C-6 16.97 -6 19.94 -6 23 C-6.66 23 -7.32 23 -8 23 C-8 24.32 -8 25.64 -8 27 C-9.98 26.67 -11.96 26.34 -14 26 C-12.3306819 21.38004936 -9.98972955 17.25059261 -7.5625 13 C-7.16740234 12.30132812 -6.77230469 11.60265625 -6.36523438 10.8828125 C-4.29148445 7.22528352 -2.18297326 3.5938338 0 0 Z " fill="#D4D4D4" transform="translate(163,329)"/>
<path d="M0 0 C0.33 0.66 0.66 1.32 1 2 C-0.11631836 4.22356095 -1.28098951 6.31161398 -2.5625 8.4375 C-3.30432435 9.69866693 -4.04519799 10.96039353 -4.78515625 12.22265625 C-5.34420654 13.17035889 -5.34420654 13.17035889 -5.91455078 14.13720703 C-8.37924931 18.36699781 -10.67823256 22.69065893 -13 27 C-13.33 26.01 -13.66 25.02 -14 24 C-13 22 -12 20 -11 18 C-10.74715633 15.24853726 -10.74715633 15.24853726 -11 13 C-10.34 13 -9.68 13 -9 13 C-8.34 10.69 -7.68 8.38 -7 6 C-6.34 6 -5.68 6 -5 6 C-5 4.35 -5 2.7 -5 1 C-3.35 0.67 -1.7 0.34 0 0 Z " fill="#C3C3C3" transform="translate(289,406)"/>
<path d="M0 0 C4.32387278 1.49334658 6.07502104 4.69473355 8.3125 8.4375 C8.8703418 9.31631836 8.8703418 9.31631836 9.43945312 10.21289062 C10.48828125 11.93359375 10.48828125 11.93359375 12 15 C11.67 15.99 11.34 16.98 11 18 C8 19 8 19 5 18 C5 17.34 5 16.68 5 16 C5.66 16 6.32 16 7 16 C7 15.34 7 14.68 7 14 C6.34 14 5.68 14 5 14 C4.34 10.37 3.68 6.74 3 3 C1.02 3.66 -0.96 4.32 -3 5 C-1.125 1.125 -1.125 1.125 0 0 Z " fill="#EAEAEA" transform="translate(167,324)"/>
<path d="M0 0 C0.75 1.6875 0.75 1.6875 1 4 C-0.31665664 5.67987227 -1.65263027 7.34466005 -3 9 C-4.6791159 13.95339189 -5.328274 17.01897251 -4 22 C-4.66 22 -5.32 22 -6 22 C-6 21.34 -6 20.68 -6 20 C-6.66 20.33 -7.32 20.66 -8 21 C-8 21.66 -8 22.32 -8 23 C-9.65 23.33 -11.3 23.66 -13 24 C-11.56318793 20.11633966 -9.74045297 16.68154757 -7.625 13.125 C-7.00753906 12.08085937 -6.39007813 11.03671875 -5.75390625 9.9609375 C-5.17511719 8.98382813 -4.59632813 8.00671875 -4 7 C-2.65693542 4.67202139 -1.32771456 2.33677763 0 0 Z " fill="#DBDBDB" transform="translate(420,304)"/>
<path d="M0 0 C5.84942137 6.74933235 10.36807713 14.86449277 14 23 C13.67 23.66 13.34 24.32 13 25 C10.7522025 22.94766315 9.9977758 21.99332739 9 19 C8.34 18.835 7.68 18.67 7 18.5 C6.34 18.335 5.68 18.17 5 18 C4.67 17.01 4.34 16.02 4 15 C3.64421875 14.11054688 3.64421875 14.11054688 3.28125 13.203125 C1.50674851 8.76687127 0.49505976 4.75257374 0 0 Z " fill="#E3E3E3" transform="translate(273,302)"/>
<path d="M0 0 C0.66 0.33 1.32 0.66 2 1 C2 1.66 2 2.32 2 3 C2.99 3 3.98 3 5 3 C5.33 4.65 5.66 6.3 6 8 C5.34 8 4.68 8 4 8 C4 7.34 4 6.68 4 6 C2.68 6 1.36 6 0 6 C-0.66 7.65 -1.32 9.3 -2 11 C-2.66 11 -3.32 11 -4 11 C-4.99 12.485 -4.99 12.485 -6 14 C-6.66 14 -7.32 14 -8 14 C-8 14.66 -8 15.32 -8 16 C-8.66 15.67 -9.32 15.34 -10 15 C-9.59007812 14.32453125 -9.18015625 13.6490625 -8.7578125 12.953125 C-8.21898437 12.06109375 -7.68015625 11.1690625 -7.125 10.25 C-6.59132813 9.36828125 -6.05765625 8.4865625 -5.5078125 7.578125 C-4.00179144 5.08958965 -4.00179144 5.08958965 -2.9296875 2.734375 C-2 1 -2 1 0 0 Z " fill="#F4F4F4" transform="translate(469,221)"/>
<path d="M0 0 C4.97227074 5.73723547 14 17.10013193 14 25 C12 25 12 25 9.375 22.6875 C7 20 7 20 7 17 C6.34 17 5.68 17 5 17 C4.80664062 16.31292969 4.61328125 15.62585938 4.4140625 14.91796875 C4.15367187 14.01691406 3.89328125 13.11585938 3.625 12.1875 C3.36976563 11.29417969 3.11453125 10.40085937 2.8515625 9.48046875 C2.04733339 6.79532104 2.04733339 6.79532104 0 4 C0 2.68 0 1.36 0 0 Z " fill="#B1B1B1" transform="translate(192,363)"/>
<path d="M0 0 C0.66 0 1.32 0 2 0 C0.98443621 4.84676113 -1.47338963 8.77974157 -3.875 13.0625 C-4.32230469 13.87783203 -4.76960938 14.69316406 -5.23046875 15.53320312 C-5.66746094 16.31759766 -6.10445313 17.10199219 -6.5546875 17.91015625 C-7.14999268 18.97955444 -7.14999268 18.97955444 -7.75732422 20.07055664 C-8.99583631 21.99353524 -10.32443504 23.45227354 -12 25 C-11.55171782 22.38502059 -11.03223556 20.07655944 -10 17.625 C-8.81661975 14.90113413 -8.81661975 14.90113413 -8.75 11.375 C-8.5025 10.26125 -8.255 9.1475 -8 8 C-5.0625 6.375 -5.0625 6.375 -2 5 C-0.57442644 2.44278263 -0.57442644 2.44278263 0 0 Z " fill="#9C9C9C" transform="translate(397,218)"/>
<path d="M0 0 C0.33 0 0.66 0 1 0 C1.3776435 4.53172205 1.3776435 4.53172205 -0.5625 6.9375 C-2.35125337 9.02935167 -2.35125337 9.02935167 -1.6875 12.25 C-1.460625 13.1575 -1.23375 14.065 -1 15 C-1.99 14.67 -2.98 14.34 -4 14 C-4 14.99 -4 15.98 -4 17 C-6.58958203 19.93952555 -8.25366514 21.75122171 -12 23 C-10.3341708 16.83643195 -7.12194714 11.51740344 -4 6 C-3.34 6 -2.68 6 -2 6 C-1.855625 5.38125 -1.71125 4.7625 -1.5625 4.125 C-1 2 -1 2 0 0 Z " fill="#EEEEEE" transform="translate(453,246)"/>
<path d="M0 0 C0 4.28850612 -2.26425705 7.1300941 -4.4375 10.6875 C-5.35163034 12.21011588 -6.26435564 13.73357605 -7.17578125 15.2578125 C-7.64322754 16.03801758 -8.11067383 16.81822266 -8.59228516 17.62207031 C-10.8299102 21.40189479 -12.98127508 25.22885675 -15.125 29.0625 C-15.51486084 29.75883545 -15.90472168 30.4551709 -16.30639648 31.17260742 C-17.20571102 32.7809302 -18.10309292 34.39033343 -19 36 C-20.140625 32.2734375 -20.140625 32.2734375 -18.875 29.8125 C-18.25625 28.884375 -17.6375 27.95625 -17 27 C-16.26197264 25.67155075 -15.53386017 24.33757292 -14.8125 23 C-12.61263577 19.02691187 -10.30340562 15.12597633 -7.9375 11.25 C-7.28652344 10.18265625 -6.63554687 9.1153125 -5.96484375 8.015625 C-4.12332714 5.18928141 -2.15522516 2.59203026 0 0 Z " fill="#777777" transform="translate(445,341)"/>
<path d="M0 0 C0.66 0 1.32 0 2 0 C2 0.66 2 1.32 2 2 C2.99 2 3.98 2 5 2 C5.45375 3.11375 5.9075 4.2275 6.375 5.375 C7.72465986 8.96199008 7.72465986 8.96199008 10 11 C10.28875 11.886875 10.5775 12.77375 10.875 13.6875 C11.80912531 16.43798008 12.62790525 18.03292817 14.1875 20.375 C16.67470176 24.54499254 16.06912397 27.34167415 15 32 C13.9375 34.5 13.9375 34.5 13 36 C12.34 35.67 11.68 35.34 11 35 C11.81380208 33.30729167 12.62760417 31.61458333 13.44140625 29.921875 C14.44826413 26.45772063 13.14986057 24.30095967 11.58203125 21.15234375 C10.99808594 20.09144531 10.41414063 19.03054688 9.8125 17.9375 C9.18859375 16.79796875 8.5646875 15.6584375 7.921875 14.484375 C7.28765625 13.33453125 6.6534375 12.1846875 6 11 C4.85340536 8.89624809 3.7075005 6.79211997 2.5625 4.6875 C1.70869951 3.12479988 0.85468083 1.56221881 0 0 Z " fill="#999999" transform="translate(249,342)"/>
<path d="M0 0 C1.98 0 3.96 0 6 0 C6 1.32 6 2.64 6 4 C4.02 4.99 4.02 4.99 2 6 C2 6.66 2 7.32 2 8 C0.68 7.34 -0.64 6.68 -2 6 C-1.34 4.02 -0.68 2.04 0 0 Z M-5 6 C-4.01 6.33 -3.02 6.66 -2 7 C-2.33 7.66 -2.66 8.32 -3 9 C-2.01 9 -1.02 9 0 9 C0 9.66 0 10.32 0 11 C-1.65 11 -3.3 11 -5 11 C-5.33 11.66 -5.66 12.32 -6 13 C-6.66 13 -7.32 13 -8 13 C-6.125 7.125 -6.125 7.125 -5 6 Z " fill="#F5F5F5" transform="translate(230,216)"/>
<path d="M0 0 C0.33 0.66 0.66 1.32 1 2 C0.29077148 3.73657227 0.29077148 3.73657227 -0.87890625 5.81640625 C-1.30300781 6.57703369 -1.72710937 7.33766113 -2.1640625 8.12133789 C-2.62554687 8.92692139 -3.08703125 9.73250488 -3.5625 10.5625 C-4.25279297 11.7834436 -4.25279297 11.7834436 -4.95703125 13.02905273 C-13.68595226 28.34297613 -13.68595226 28.34297613 -17 30 C-17 29.01 -17 28.02 -17 27 C-16.34 27 -15.68 27 -15 27 C-14.73703125 26.31550781 -14.4740625 25.63101562 -14.203125 24.92578125 C-10.53171349 15.99757598 -6.26802525 7.39305542 0 0 Z " fill="#676767" transform="translate(363,279)"/>
<path d="M0 0 C0.5625 1.890625 0.5625 1.890625 1 4 C0.67 4.5775 0.34 5.155 0 5.75 C-1.81053949 9.82371385 -0.6624148 14.24933232 0.875 18.3125 C1.94740062 20.07690163 1.94740062 20.07690163 3.625 21.4375 C5 23 5 23 5.1875 25.6875 C5.125625 26.450625 5.06375 27.21375 5 28 C2.27210565 24.8524296 -0.03419872 21.51797834 -2.25 18 C-2.77078125 17.175 -3.2915625 16.35 -3.828125 15.5 C-5.15360067 12.67231856 -5.4118955 11.08431272 -5 8 C-3.90625 5.76171875 -3.90625 5.76171875 -2.5 3.6875 C-2.0359375 2.99011719 -1.571875 2.29273438 -1.09375 1.57421875 C-0.7328125 1.05472656 -0.371875 0.53523437 0 0 Z " fill="#B1B1B1" transform="translate(208,251)"/>
<path d="M0 0 C3 1 3 1 4.16796875 2.77734375 C4.50441406 3.49019531 4.84085937 4.20304687 5.1875 4.9375 C5.70376953 6.00291016 5.70376953 6.00291016 6.23046875 7.08984375 C7 9 7 9 7 11 C7.66 11 8.32 11 9 11 C9 12.32 9 13.64 9 15 C9.66 15 10.32 15 11 15 C11 15.66 11 16.32 11 17 C11.66 17 12.32 17 13 17 C13.28875 16.4225 13.5775 15.845 13.875 15.25 C14.24625 14.5075 14.6175 13.765 15 13 C15.309375 12.278125 15.61875 11.55625 15.9375 10.8125 C17 9 17 9 20 8 C18.72278474 12.99275057 16.82669043 15.57611908 13 19 C8.1858788 16.71518941 6.12709907 13.48802351 3.6875 8.9375 C3.32849609 8.30005859 2.96949219 7.66261719 2.59960938 7.00585938 C0 2.30675595 0 2.30675595 0 0 Z " fill="#ACACAC" transform="translate(336,488)"/>
<path d="M0 0 C0.66 0 1.32 0 2 0 C3.4606285 2.64738916 4 3.89448334 4 7 C6.97 7.495 6.97 7.495 10 8 C10 8.99 10 9.98 10 11 C11.06302622 16.06981736 12.26938001 19.57899621 15 24 C14.67 24.66 14.34 25.32 14 26 C0 3.64974619 0 3.64974619 0 0 Z " fill="#AAAAAA" transform="translate(213,480)"/>
<path d="M0 0 C0.91058531 3.07322544 1.08886184 5.80097361 1 9 C-0.32 9.33 -1.64 9.66 -3 10 C-2.80664062 10.58007812 -2.61328125 11.16015625 -2.4140625 11.7578125 C-0.94270833 16.171875 0.52864583 20.5859375 2 25 C-1.66517932 21.58349066 -4.21620459 17.68637478 -6 13 C-5.37568404 7.73790838 -3.05862041 4.18011456 0 0 Z " fill="#C0C0C0" transform="translate(331,458)"/>
<path d="M0 0 C3.09510839 2.67348372 4.86497182 6.0316616 6.8125 9.5625 C7.51589445 10.81958878 8.22033041 12.07609532 8.92578125 13.33203125 C9.27334473 13.95158691 9.6209082 14.57114258 9.97900391 15.20947266 C11.89011224 18.5609955 13.93005182 21.83444495 15.96875 25.109375 C17 27 17 27 17 29 C16.34 29 15.68 29 15 29 C14.401875 27.9275 13.80375 26.855 13.1875 25.75 C11.96851221 23.59833472 10.77366969 21.70900388 9.25 19.75 C8 18 8 18 8 15 C7.34 15 6.68 15 6 15 C5.67 13.02 5.34 11.04 5 9 C4.34 9 3.68 9 3 9 C0.56839395 5.63316085 0 4.26649636 0 0 Z " fill="#666666" transform="translate(474,215)"/>
<path d="M0 0 C0.66 0 1.32 0 2 0 C1.34938905 1.67299959 0.67966676 3.33859237 0 5 C-0.2475 5.66 -0.495 6.32 -0.75 7 C-2.63652954 10.01844727 -5.20363522 11.81154061 -8 14 C-8.33 13.34 -8.66 12.68 -9 12 C-8.34 12 -7.68 12 -7 12 C-7.66 10.68 -8.32 9.36 -9 8 C-9.99 8.495 -9.99 8.495 -11 9 C-9.25 4.125 -9.25 4.125 -7 3 C-7 3.66 -7 4.32 -7 5 C-6.34 5 -5.68 5 -5 5 C-4.67 4.34 -4.34 3.68 -4 3 C-3.01 3.33 -2.02 3.66 -1 4 C-0.67 2.68 -0.34 1.36 0 0 Z " fill="#C1C1C1" transform="translate(263,450)"/>
<path d="M0 0 C0.66 1.32 1.32 2.64 2 4 C2.66 4 3.32 4 4 4 C4 4.66 4 5.32 4 6 C2.02 6.99 0.04 7.98 -2 9 C-2 9.99 -2 10.98 -2 12 C-2.99 12 -3.98 12 -5 12 C-5 13.65 -5 15.3 -5 17 C-5.99 16.67 -6.98 16.34 -8 16 C-6.42986223 10.03347646 -3.24970218 5.17090975 0 0 Z " fill="#E4E4E4" transform="translate(369,392)"/>
<path d="M0 0 C1.32 0.33 2.64 0.66 4 1 C4 1.99 4 2.98 4 4 C4.66 4 5.32 4 6 4 C6 2.68 6 1.36 6 0 C6.99 0.33 7.98 0.66 9 1 C9 2.32 9 3.64 9 5 C9.99 5.33 10.98 5.66 12 6 C11.67 6.66 11.34 7.32 11 8 C10.34 8 9.68 8 9 8 C8.67 8.99 8.34 9.98 8 11 C3.32974539 7.84442256 1.87655769 5.1358421 0 0 Z " fill="#E5E5E5" transform="translate(337,298)"/>
<path d="M0 0 C0.33 0.66 0.66 1.32 1 2 C0.566875 3.0209375 0.566875 3.0209375 0.125 4.0625 C-1.37758566 7.98591812 -1.65525949 11.83589751 -2 16 C-3.65 15.67 -5.3 15.34 -7 15 C-7.33 16.32 -7.66 17.64 -8 19 C-8.66 19 -9.32 19 -10 19 C-8.59478925 15.28429849 -6.91641021 11.85328453 -5 8.375 C-4.484375 7.43398438 -3.96875 6.49296875 -3.4375 5.5234375 C-2.3640955 3.63914591 -1.20291339 1.80437008 0 0 Z " fill="#D3D3D3" transform="translate(360,408)"/>
<path d="M0 0 C0.33 0.66 0.66 1.32 1 2 C0.36669922 3.66064453 0.36669922 3.66064453 -0.6953125 5.6328125 C-1.08203125 6.35726563 -1.46875 7.08171875 -1.8671875 7.828125 C-2.28226562 8.58609375 -2.69734375 9.3440625 -3.125 10.125 C-3.516875 10.85976563 -3.90875 11.59453125 -4.3125 12.3515625 C-7.01253456 17.36339135 -9.92680893 22.20881541 -13 27 C-14 25 -14 25 -13.375 22.875 C-11.86574015 19.71927486 -10.06312773 16.8770839 -8.17578125 13.9375 C-6.82573504 11.71283914 -5.84537153 9.45926264 -5 7 C-4.34 7 -3.68 7 -3 7 C-2.87625 6.030625 -2.7525 5.06125 -2.625 4.0625 C-2.41875 3.051875 -2.2125 2.04125 -2 1 C-1.34 0.67 -0.68 0.34 0 0 Z " fill="#919191" transform="translate(304,379)"/>
<path d="M0 0 C0.66 0 1.32 0 2 0 C0.40376856 4.39383706 -1.78024333 8.28995807 -4.125 12.3125 C-4.49753906 12.95767578 -4.87007813 13.60285156 -5.25390625 14.26757812 C-6.16632213 15.84675945 -7.08275509 17.42361864 -8 19 C-9.21599132 15.35202603 -8.3327695 14.20645737 -6.76953125 10.8515625 C-5.70665567 8.29418674 -5.33375334 5.73677743 -5 3 C-3.68 3 -2.36 3 -1 3 C-0.67 2.01 -0.34 1.02 0 0 Z " fill="#7E7E7E" transform="translate(423,377)"/>
<path d="M0 0 C0.99 0.495 0.99 0.495 2 1 C2 1.99 2 2.98 2 4 C2.99 4 3.98 4 5 4 C7.428738 6.8785043 8.24450821 9.37497837 8.4375 13.0625 C8 17 8 17 6 19.5 C5.34 19.995 4.68 20.49 4 21 C4 20.01 4 19.02 4 18 C4.66 18 5.32 18 6 18 C6.33 16.02 6.66 14.04 7 12 C6.01 12 5.02 12 4 12 C4 10.68 4 9.36 4 8 C3.34 8 2.68 8 2 8 C0.23537317 4.91190305 0 3.76687864 0 0 Z " fill="#A3A3A3" transform="translate(487,240)"/>
<path d="M0 0 C0.33 0 0.66 0 1 0 C0.98839844 0.77085937 0.97679687 1.54171875 0.96484375 2.3359375 C0.95582031 3.33882813 0.94679687 4.34171875 0.9375 5.375 C0.92589844 6.37273437 0.91429687 7.37046875 0.90234375 8.3984375 C0.81993398 10.98432453 0.81993398 10.98432453 2 13 C4.01669827 14.13350534 4.01669827 14.13350534 6 15 C5.67 16.98 5.34 18.96 5 21 C2.12801561 19.5640078 1.37593684 17.52779277 -0.1875 14.75 C-0.73792969 13.79609375 -1.28835937 12.8421875 -1.85546875 11.859375 C-3.14934409 8.62689463 -3.05938567 7.26179271 -2 4 C-0.9375 1.6875 -0.9375 1.6875 0 0 Z " fill="#B9B9B9" transform="translate(148,355)"/>
<path d="M0 0 C0.66 0 1.32 0 2 0 C2.33 0.66 2.66 1.32 3 2 C3.99 2.33 4.98 2.66 6 3 C6 4.98 6 6.96 6 9 C6.66 9 7.32 9 8 9 C12.40774487 17.261959 12.40774487 17.261959 13 22 C10.18129512 20.59064756 9.63598067 18.71598404 8.1875 15.9375 C5.92787254 11.67363295 3.54339691 7.58293684 0.8828125 3.55859375 C0 2 0 2 0 0 Z " fill="#B0B0B0" transform="translate(213,279)"/>
<path d="M0 0 C0.66 0 1.32 0 2 0 C0.00679515 5.61721366 -2.7543927 11.7543927 -7 16 C-8.32 16 -9.64 16 -11 16 C-10.67 15.34 -10.34 14.68 -10 14 C-9.34 14.33 -8.68 14.66 -8 15 C-7.34 12.03 -6.68 9.06 -6 6 C-4.68 5.67 -3.36 5.34 -2 5 C-0.70339566 2.50965614 -0.70339566 2.50965614 0 0 Z " fill="#A4A4A4" transform="translate(239,492)"/>
<path d="M0 0 C1.26467795 2.52935589 0.7249339 3.34190903 0 6 C0 6.99 0 7.98 0 9 C-1.375 11.1875 -1.375 11.1875 -3 13 C-3.66 13 -4.32 13 -5 13 C-5 13.66 -5 14.32 -5 15 C-5.66 15 -6.32 15 -7 15 C-7 15.66 -7 16.32 -7 17 C-7.66 16.67 -8.32 16.34 -9 16 C-8.06385433 14.27009975 -7.12602042 12.54111304 -6.1875 10.8125 C-5.66542969 9.84957031 -5.14335937 8.88664062 -4.60546875 7.89453125 C-3.12536134 5.22601643 -1.58662491 2.60625773 0 0 Z " fill="#C5C5C5" transform="translate(243,406)"/>
<path d="M0 0 C-1.48536044 4.02316219 -3.39876893 7.61292642 -5.5625 11.3125 C-6.18253906 12.38113281 -6.80257813 13.44976562 -7.44140625 14.55078125 C-8.21291016 15.76314453 -8.21291016 15.76314453 -9 17 C-9.33 17 -9.66 17 -10 17 C-10.33 15.02 -10.66 13.04 -11 11 C-10.34 11 -9.68 11 -9 11 C-9 10.34 -9 9.68 -9 9 C-8.34 9 -7.68 9 -7 9 C-5.92474806 6.34771188 -4.90543849 3.71631546 -4 1 C-2 0 -2 0 0 0 Z " fill="#7A7A7A" transform="translate(275,433)"/>
<path d="M0 0 C1.32 0.66 2.64 1.32 4 2 C4 2.99 4 3.98 4 5 C4.99 5 5.98 5 7 5 C7 5.66 7 6.32 7 7 C6.34 7 5.68 7 5 7 C4.67 9.64 4.34 12.28 4 15 C1.64046906 12.64046906 1.50858587 11.22104383 1 8 C0.34 8 -0.32 8 -1 8 C-0.67 5.36 -0.34 2.72 0 0 Z " fill="#F3F3F3" transform="translate(220,280)"/>
<path d="M0 0 C1.32 0 2.64 0 4 0 C2.93143889 3.30282526 1.78013568 5.25834058 -0.5 7.9375 C-2.9824894 10.97854951 -4.01589563 13.24251057 -5 17 C-5.33 17 -5.66 17 -6 17 C-6 14.03 -6 11.06 -6 8 C-4.68 7.34 -3.36 6.68 -2 6 C-2 5.34 -2 4.68 -2 4 C-1.34 4 -0.68 4 0 4 C0 2.68 0 1.36 0 0 Z " fill="#E4E4E4" transform="translate(383,440)"/>
<path d="M0 0 C0.99 0.33 1.98 0.66 3 1 C2.3844197 3.14855454 1.75726569 5.29379625 1.125 7.4375 C0.77695312 8.63246094 0.42890625 9.82742188 0.0703125 11.05859375 C-1 14 -1 14 -3 15 C-2.67 12.36 -2.34 9.72 -2 7 C-2.66 7 -3.32 7 -4 7 C-4.33 5.35 -4.66 3.7 -5 2 C-4.34 2 -3.68 2 -3 2 C-3 2.66 -3 3.32 -3 4 C-2.34 4 -1.68 4 -1 4 C-0.67 2.68 -0.34 1.36 0 0 Z " fill="#F1F1F1" transform="translate(415,384)"/>
<path d="M0 0 C0.66 0.33 1.32 0.66 2 1 C0.21696437 4.15080111 -1.57784888 7.29473197 -3.375 10.4375 C-3.88289063 11.33533203 -4.39078125 12.23316406 -4.9140625 13.15820312 C-5.64882813 14.43920898 -5.64882813 14.43920898 -6.3984375 15.74609375 C-7.07398682 16.93223267 -7.07398682 16.93223267 -7.76318359 18.14233398 C-9 20 -9 20 -11 21 C-9.95605309 14.0838517 -7.02012007 9.82901666 -2.77734375 4.3203125 C-0.99122962 2.13985055 -0.99122962 2.13985055 0 0 Z " fill="#6A6A6A" transform="translate(397,423)"/>
<path d="M0 0 C0.33 0 0.66 0 1 0 C1 1.65 1 3.3 1 5 C-0.98 5.99 -0.98 5.99 -3 7 C-1.68 7 -0.36 7 1 7 C1 7.66 1 8.32 1 9 C0.34 9 -0.32 9 -1 9 C-1.33 9.99 -1.66 10.98 -2 12 C-3.32 12 -4.64 12 -6 12 C-6.33 13.65 -6.66 15.3 -7 17 C-7.66 17 -8.32 17 -9 17 C-7.69047721 12.56473186 -5.95266332 9.00013681 -3.4375 5.125 C-2.50744141 3.67480469 -2.50744141 3.67480469 -1.55859375 2.1953125 C-1.04425781 1.47085937 -0.52992188 0.74640625 0 0 Z " fill="#CDCDCD" transform="translate(386,363)"/>
<path d="M0 0 C2.31243792 -0.02685412 4.6249627 -0.04632841 6.9375 -0.0625 C8.22527344 -0.07410156 9.51304687 -0.08570313 10.83984375 -0.09765625 C14 0 14 0 15 1 C15.4664311 6.3639576 15.4664311 6.3639576 13.625 8.875 C12 10 12 10 10 10 C10.66 7.36 11.32 4.72 12 2 C8.04 1.67 4.08 1.34 0 1 C0 0.67 0 0.34 0 0 Z " fill="#A6A6A6" transform="translate(317,253)"/>
<path d="M0 0 C0 3.57919544 -0.94946837 5.08355939 -2.6875 8.1875 C-3.23019531 9.156875 -3.77289063 10.12625 -4.33203125 11.125 C-6.46966341 14.80953693 -8.70000098 18.41470741 -11 22 C-11.33 21.34 -11.66 20.68 -12 20 C-9.07087166 13.28741422 -5.20963234 5.20963234 0 0 Z " fill="#626262" transform="translate(259,459)"/>
<path d="M0 0 C0.33 0.66 0.66 1.32 1 2 C0.67 2.66 0.34 3.32 0 4 C0.66 4.33 1.32 4.66 2 5 C1.01 5.495 1.01 5.495 0 6 C0.3403125 6.8971875 0.3403125 6.8971875 0.6875 7.8125 C1 10 1 10 -0.1875 11.8125 C-2 13 -2 13 -4.1875 12.6875 C-4.785625 12.460625 -5.38375 12.23375 -6 12 C-4.43358249 7.69235185 -2.31663844 3.93828536 0 0 Z " fill="#DEDEDE" transform="translate(401,337)"/>
<path d="M0 0 C3.24741424 2.78496601 5.16089095 6.39536751 7.25 10.0625 C7.62640625 10.69994141 8.0028125 11.33738281 8.390625 11.99414062 C9.32643643 13.6266499 10.17105723 15.31071511 11 17 C10.67 17.66 10.34 18.32 10 19 C5.79760004 16.19840003 5.06321392 12.78446265 4 8 C3.34 8 2.68 8 2 8 C0.23537317 4.91190305 0 3.76687864 0 0 Z " fill="#9A9A9A" transform="translate(206,388)"/>
<path d="M0 0 C0.33 0.66 0.66 1.32 1 2 C0.19555664 3.78759766 0.19555664 3.78759766 -1.08984375 5.9140625 C-1.54423828 6.67460937 -1.99863281 7.43515625 -2.46679688 8.21875 C-2.95212891 9.0128125 -3.43746094 9.806875 -3.9375 10.625 C-4.41896484 11.42679687 -4.90042969 12.22859375 -5.39648438 13.0546875 C-6.59056765 15.04088542 -7.79195201 17.02227542 -9 19 C-10.40980321 14.77059037 -8.92473415 12.91820881 -7 9 C-5.4375 6.5625 -5.4375 6.5625 -4 5 C-3.34 5 -2.68 5 -2 5 C-1.34 3.35 -0.68 1.7 0 0 Z " fill="#757575" transform="translate(374,260)"/>
<path d="M0 0 C0.66 1.32 1.32 2.64 2 4 C1.01 4.495 1.01 4.495 0 5 C0.3403125 5.8971875 0.3403125 5.8971875 0.6875 6.8125 C1 9 1 9 -0.1875 10.75 C-2 12 -2 12 -6 12 C-4.43358249 7.69235185 -2.31663844 3.93828536 0 0 Z " fill="#DCDCDC" transform="translate(376,380)"/>
<path d="M0 0 C1.50156874 3.00313748 1.09281204 5.79067522 1.0625 9.125 C1.05347656 10.40632813 1.04445313 11.68765625 1.03515625 13.0078125 C1.02355469 13.99523437 1.01195312 14.98265625 1 16 C-1.70453851 13.41305012 -2.90897461 12.02403561 -3.25 8.1875 C-2.97212427 4.64458445 -2.02619474 2.87044255 0 0 Z " fill="#CDCDCD" transform="translate(326,263)"/>
<path d="M0 0 C0.99 0.33 1.98 0.66 3 1 C0.69 4.96 -1.62 8.92 -4 13 C-4.33 11.68 -4.66 10.36 -5 9 C-5.66 9 -6.32 9 -7 9 C-6.34 7.02 -5.68 5.04 -5 3 C-3.35 3.33 -1.7 3.66 0 4 C0 2.68 0 1.36 0 0 Z " fill="#EDEDED" transform="translate(404,405)"/>
<path d="M0 0 C0.33 0.66 0.66 1.32 1 2 C-0.34178633 4.56186195 -1.73126612 6.98398311 -3.25 9.4375 C-3.65863281 10.11876953 -4.06726563 10.80003906 -4.48828125 11.50195312 C-6.43478997 14.69710651 -8.26550897 17.41758919 -11 20 C-8.23529412 10.82352941 -8.23529412 10.82352941 -5 7 C-4.67 6.01 -4.34 5.02 -4 4 C-3.34 4 -2.68 4 -2 4 C-2 3.01 -2 2.02 -2 1 C-1.34 0.67 -0.68 0.34 0 0 Z " fill="#6F6F6F" transform="translate(457,320)"/>
<path d="M0 0 C2.46409136 2.92040458 4.70808681 5.93898897 6.8125 9.125 C7.25207031 9.78757812 7.69164062 10.45015625 8.14453125 11.1328125 C9 13 9 13 8 16 C7.34 14.35 6.68 12.7 6 11 C4.35 11 2.7 11 1 11 C0.67 7.37 0.34 3.74 0 0 Z " fill="#979797" transform="translate(255,271)"/>
<path d="M0 0 C0.66 0 1.32 0 2 0 C3 1 4 2 5 3 C7.09989652 4.17574711 7.09989652 4.17574711 9 5 C8.7215625 6.11375 8.7215625 6.11375 8.4375 7.25 C8.00796892 9.94990963 8.14877026 11.44631077 9 14 C6.33942369 11.58710497 4.63367391 8.95975383 2.8125 5.875 C2.01779297 4.54082031 2.01779297 4.54082031 1.20703125 3.1796875 C0 1 0 1 0 0 Z " fill="#B6B6B6" transform="translate(183,429)"/>
<path d="M0 0 C1.5 1.375 1.5 1.375 3 3 C3 3.66 3 4.32 3 5 C5.47266765 4.65555119 5.47266765 4.65555119 8 4 C8.33 3.34 8.66 2.68 9 2 C8.25 6.75 8.25 6.75 6 9 C5.01 9 4.02 9 3 9 C3 8.34 3 7.68 3 7 C2.01 6.67 1.02 6.34 0 6 C0 4.02 0 2.04 0 0 Z " fill="#979797" transform="translate(225,421)"/>
<path d="M0 0 C0.33 1.32 0.66 2.64 1 4 C1.66 4 2.32 4 3 4 C2.67 5.65 2.34 7.3 2 9 C-0.31 9.66 -2.62 10.32 -5 11 C-5 10.34 -5 9.68 -5 9 C-4.34 9 -3.68 9 -3 9 C-2.87625 7.700625 -2.7525 6.40125 -2.625 5.0625 C-2.4140625 2.84765625 -2.4140625 2.84765625 -2 1 C-1.34 0.67 -0.68 0.34 0 0 Z " fill="#F0F0F0" transform="translate(178,341)"/>
<path d="M0 0 C3.67882073 3.28466137 5.75150101 6.66360908 8 11 C8 11.66 8 12.32 8 13 C7.34 13 6.68 13 6 13 C5.34 12.34 4.68 11.68 4 11 C3.67 11 3.34 11 3 11 C3 9.35 3 7.7 3 6 C1.68 5.67 0.36 5.34 -1 5 C-0.67 3.35 -0.34 1.7 0 0 Z " fill="#AFAFAF" transform="translate(217,408)"/>
<path d="M0 0 C0.66 0.33 1.32 0.66 2 1 C2 1.66 2 2.32 2 3 C2.66 3 3.32 3 4 3 C4.33 4.65 4.66 6.3 5 8 C4.01 8.33 3.02 8.66 2 9 C-0.1875 7.5625 -0.1875 7.5625 -2 6 C-1.34 4.02 -0.68 2.04 0 0 Z " fill="#F2F2F2" transform="translate(202,385)"/>
<path d="M0 0 C1.32 0.33 2.64 0.66 4 1 C4.33 3.64 4.66 6.28 5 9 C5.66 9 6.32 9 7 9 C8.5625 11.8125 8.5625 11.8125 10 15 C9.67 15.99 9.34 16.98 9 18 C7.49185257 15.56721456 5.99335653 13.12933973 4.5 10.6875 C4.07074219 9.99720703 3.64148438 9.30691406 3.19921875 8.59570312 C2.79316406 7.92861328 2.38710938 7.26152344 1.96875 6.57421875 C1.40317383 5.65515747 1.40317383 5.65515747 0.82617188 4.7175293 C0 3 0 3 0 0 Z " fill="#B3B3B3" transform="translate(327,279)"/>
<path d="M0 0 C1.65 0 3.3 0 5 0 C6.125 2.3125 6.125 2.3125 7 5 C6.01 6.485 6.01 6.485 5 8 C5 7.01 5 6.02 5 5 C3.68 5.99 2.36 6.98 1 8 C0.67 5.36 0.34 2.72 0 0 Z " fill="#ECECEC" transform="translate(256,282)"/>
<path d="M0 0 C0.99 0.33 1.98 0.66 3 1 C3.75537378 2.70780159 4.50294894 4.42058501 5.171875 6.1640625 C6.01926529 8.26125544 6.01926529 8.26125544 8.1875 10.625 C10.27514436 13.36053398 10.38347912 14.64455768 10 18 C6.87084199 15.3137382 5.2357324 12.04608071 3.3125 8.4375 C2.68988281 7.28121094 2.06726563 6.12492187 1.42578125 4.93359375 C0 2 0 2 0 0 Z " fill="#A0A0A0" transform="translate(197,452)"/>
<path d="M0 0 C0.66 0 1.32 0 2 0 C2 0.66 2 1.32 2 2 C2.66 2 3.32 2 4 2 C4 2.99 4 3.98 4 5 C4.99 4.67 5.98 4.34 7 4 C7.33 6.97 7.66 9.94 8 13 C3.68614204 9.45647382 2.0278602 5.04807753 0 0 Z " fill="#ABABAB" transform="translate(175,415)"/>
<path d="M0 0 C1.06546953 3.1964086 1.07427838 5.65747276 1 9 C0.01 9.495 0.01 9.495 -1 10 C-1.65772428 13.02934491 -1.65772428 13.02934491 -2 16 C-2.66 15.67 -3.32 15.34 -4 15 C-3.40546697 4.44191344 -3.40546697 4.44191344 0 0 Z " fill="#E7E7E7" transform="translate(424,297)"/>
<path d="M0 0 C0.33 0.99 0.66 1.98 1 3 C-0.4375 5.1875 -0.4375 5.1875 -2 7 C-3.875 6.8125 -3.875 6.8125 -6 6 C-7.25 3.4375 -7.25 3.4375 -8 1 C-6.8553125 1.309375 -6.8553125 1.309375 -5.6875 1.625 C-2.78114056 2.33391203 -2.78114056 2.33391203 0 0 Z " fill="#DCDCDC" transform="translate(341,482)"/>
<path d="M0 0 C0.33 0.66 0.66 1.32 1 2 C-0.21484375 4.6015625 -0.21484375 4.6015625 -1.9375 7.625 C-2.50339844 8.62789063 -3.06929688 9.63078125 -3.65234375 10.6640625 C-4.09707031 11.43492187 -4.54179687 12.20578125 -5 13 C-5.66 13 -6.32 13 -7 13 C-6.70876501 7.02968261 -3.97185616 4.105466 0 0 Z " fill="#777777" transform="translate(385,444)"/>
<path d="M0 0 C0.66 0 1.32 0 2 0 C0.65072455 4.53847198 -1.19159348 8.31932246 -3.625 12.375 C-4.25664062 13.43460937 -4.88828125 14.49421875 -5.5390625 15.5859375 C-6.02117187 16.38257813 -6.50328125 17.17921875 -7 18 C-8 15 -8 15 -6.85546875 12.44140625 C-6.30503906 11.49136719 -5.75460937 10.54132813 -5.1875 9.5625 C-4.64480469 8.61503906 -4.10210937 7.66757812 -3.54296875 6.69140625 C-3.03378906 5.80324219 -2.52460938 4.91507812 -2 4 C-1.32187186 2.67245925 -0.65012471 1.34147683 0 0 Z " fill="#656565" transform="translate(283,415)"/>
<path d="M0 0 C1.9451 2.91765 2.45276317 4.62537285 3 8 C2.01 8.66 1.02 9.32 0 10 C-0.66 9.01 -1.32 8.02 -2 7 C-2.99 7.495 -2.99 7.495 -4 8 C-2.66666667 5.33333333 -1.33333333 2.66666667 0 0 Z " fill="#DEDEDE" transform="translate(458,238)"/>
<path d="M0 0 C2.31 0.33 4.62 0.66 7 1 C7 4.3 7 7.6 7 11 C4.18515955 9.59257978 3.72516601 7.74442408 2.375 4.9375 C1.92898437 4.01839844 1.48296875 3.09929687 1.0234375 2.15234375 C0.51683594 1.08693359 0.51683594 1.08693359 0 0 Z " fill="#BEBEBE" transform="translate(168,403)"/>
<path d="M0 0 C0.66 0 1.32 0 2 0 C2 0.66 2 1.32 2 2 C2.99 2 3.98 2 5 2 C5.45375 3.11375 5.9075 4.2275 6.375 5.375 C7.72465986 8.96199008 7.72465986 8.96199008 10 11 C9.67 11.66 9.34 12.32 9 13 C8.34 13 7.68 13 7 13 C5.71372091 11.07058137 4.51888653 9.07960033 3.375 7.0625 C2.74335938 5.96035156 2.11171875 4.85820312 1.4609375 3.72265625 C0 1 0 1 0 0 Z " fill="#AEAEAE" transform="translate(249,342)"/>
<path d="M0 0 C2 2 2 2 2 5 C2.66 5 3.32 5 4 5 C4 5.66 4 6.32 4 7 C4.66 7 5.32 7 6 7 C6 7.99 6 8.98 6 10 C5.34 10 4.68 10 4 10 C4 9.34 4 8.68 4 8 C3.34 8 2.68 8 2 8 C1.67 8.66 1.34 9.32 1 10 C0.34 9.34 -0.32 8.68 -1 8 C-0.34 8 0.32 8 1 8 C0.67 7.34 0.34 6.68 0 6 C-0.99 6.495 -0.99 6.495 -2 7 C-1.34 4.69 -0.68 2.38 0 0 Z " fill="#EFEFEF" transform="translate(289,334)"/>
<path d="M0 0 C1.15941038 3.47823115 0.70820884 5.45895578 0 9 C-0.66 9 -1.32 9 -2 9 C-2.66 10.65 -3.32 12.3 -4 14 C-4.99 14 -5.98 14 -7 14 C-5.23570801 9.02790438 -2.6060834 4.56561939 0 0 Z " fill="#BBBBBB" transform="translate(163,329)"/>
<path d="M0 0 C3.30979968 2.81332973 5.1048141 6.141943 7 10 C6.75 12.4375 6.75 12.4375 6 14 C6 13.34 6 12.68 6 12 C5.34 12 4.68 12 4 12 C3.34 9.69 2.68 7.38 2 5 C1.34 5 0.68 5 0 5 C0 3.35 0 1.7 0 0 Z " fill="#A5A5A5" transform="translate(287,327)"/>
<path d="M0 0 C1 2 1 2 0.546875 3.8046875 C-2.28818207 11.17027694 -2.28818207 11.17027694 -5 14 C-5.66 14 -6.32 14 -7 14 C-5.53967505 8.68972746 -3.01679014 4.53669968 0 0 Z " fill="#C3C3C3" transform="translate(448,255)"/>
<path d="M0 0 C1.65 0 3.3 0 5 0 C4.34 2.31 3.68 4.62 3 7 C2.01 7 1.02 7 0 7 C-1.04449911 3.86650268 -0.93423645 3.01031744 0 0 Z " fill="#EFEFEF" transform="translate(393,216)"/>
<path d="M0 0 C0.99 0.33 1.98 0.66 3 1 C1.6302836 4.99500618 -0.25722422 7.80009492 -3 11 C-4.35439668 8.29120665 -4.06501451 5.99066732 -4 3 C-1.525 3.495 -1.525 3.495 1 4 C0.67 2.68 0.34 1.36 0 0 Z " fill="#E9E9E9" transform="translate(374,456)"/>
<path d="M0 0 C0.99 0 1.98 0 3 0 C3 1.32 3 2.64 3 4 C3.99 4 4.98 4 6 4 C6 5.98 6 7.96 6 10 C6.66 10.33 7.32 10.66 8 11 C7.01 11 6.02 11 5 11 C4.16151196 9.54462432 3.32936066 8.08559627 2.5 6.625 C1.80390625 5.40683594 1.80390625 5.40683594 1.09375 4.1640625 C0 2 0 2 0 0 Z " fill="#B4B4B4" transform="translate(153,376)"/>
<path d="M0 0 C2.89573237 1.44786618 3.59287023 3.55499304 5.125 6.375 C5.66382813 7.35210937 6.20265625 8.32921875 6.7578125 9.3359375 C8 12 8 12 8 15 C4.86684485 13.22172275 3.25253074 11.68558149 2 8.28515625 C1.26353049 5.53401775 0.59079317 2.78585397 0 0 Z " fill="#8D8D8D" transform="translate(264,287)"/>
<path d="M0 0 C1.27433584 2.54867169 1.27570202 4.17405433 1 7 C-0.375 8.8125 -0.375 8.8125 -2 10 C-2.66 10 -3.32 10 -4 10 C-4 10.66 -4 11.32 -4 12 C-4.66 11.67 -5.32 11.34 -6 11 C-4.02 7.37 -2.04 3.74 0 0 Z " fill="#C2C2C2" transform="translate(221,229)"/>
<path d="M0 0 C0.33 0.66 0.66 1.32 1 2 C1.66 2 2.32 2 3 2 C2.67 3.32 2.34 4.64 2 6 C1.34 6 0.68 6 0 6 C0 6.66 0 7.32 0 8 C-1.32 8.33 -2.64 8.66 -4 9 C-2.94124926 5.59687262 -1.99097846 2.98646769 0 0 Z " fill="#D8D8D8" transform="translate(406,328)"/>
<path d="M0 0 C0.33 0.99 0.66 1.98 1 3 C-0.36328125 5.62890625 -0.36328125 5.62890625 -2.3125 8.5625 C-2.94800781 9.53316406 -3.58351563 10.50382812 -4.23828125 11.50390625 C-6 14 -6 14 -8 16 C-7.39009109 12.44219804 -6.4216319 9.3171411 -5 6 C-4.34 6 -3.68 6 -3 6 C-2.67 4.68 -2.34 3.36 -2 2 C-1.34 2 -0.68 2 0 2 C0 1.34 0 0.68 0 0 Z " fill="#616161" transform="translate(466,304)"/>
<path d="M0 0 C0.99 0.495 0.99 0.495 2 1 C2 1.66 2 2.32 2 3 C2.99 2.67 3.98 2.34 5 2 C5.66 2.33 6.32 2.66 7 3 C7 5.97 7 8.94 7 12 C0 3.55172414 0 3.55172414 0 0 Z " fill="#B6B6B6" transform="translate(227,303)"/>
<path d="M0 0 C1 2 1 2 0.328125 4.34765625 C-0.02765625 5.24355469 -0.3834375 6.13945312 -0.75 7.0625 C-1.26820313 8.41021484 -1.26820313 8.41021484 -1.796875 9.78515625 C-3 12 -3 12 -6 13 C-6 13.66 -6 14.32 -6 15 C-6.66 14.67 -7.32 14.34 -8 14 C-7.59007812 13.32453125 -7.18015625 12.6490625 -6.7578125 11.953125 C-6.21898437 11.06109375 -5.68015625 10.1690625 -5.125 9.25 C-4.59132813 8.36828125 -4.05765625 7.4865625 -3.5078125 6.578125 C-2.24403334 4.41725907 -1.08501165 2.25429605 0 0 Z " fill="#BEBEBE" transform="translate(467,222)"/>
<path d="M0 0 C0.33 0.99 0.66 1.98 1 3 C1.66 3 2.32 3 3 3 C3.33 2.01 3.66 1.02 4 0 C4.33 0.99 4.66 1.98 5 3 C4.566875 3.350625 4.13375 3.70125 3.6875 4.0625 C1.31641544 6.78485635 0.3283165 9.64758216 -1 13 C-2.95177846 9.09644308 -1.14247021 4.08025075 0 0 Z " fill="#E2E2E2" transform="translate(290,394)"/>
<path d="M0 0 C0.33 0.66 0.66 1.32 1 2 C-0.24493748 4.28974316 -1.52641528 6.44190034 -2.9375 8.625 C-3.32357422 9.23601562 -3.70964844 9.84703125 -4.10742188 10.4765625 C-5.06446326 11.9889242 -6.03132811 13.49506117 -7 15 C-7.33 14.34 -7.66 13.68 -8 13 C-7.22265625 11.0546875 -7.22265625 11.0546875 -6.0625 8.875 C-5.49208984 7.78832031 -5.49208984 7.78832031 -4.91015625 6.6796875 C-4.60980469 6.12539063 -4.30945313 5.57109375 -4 5 C-3.34 5 -2.68 5 -2 5 C-1.855625 4.360625 -1.71125 3.72125 -1.5625 3.0625 C-1 1 -1 1 0 0 Z " fill="#636363" transform="translate(481,278)"/>
<path d="M0 0 C3.13044524 2.0869635 3.45559583 2.81466639 5 6 C5.804375 6.7115625 5.804375 6.7115625 6.625 7.4375 C8 9 8 9 8.1875 11.6875 C8.125625 12.450625 8.06375 13.21375 8 14 C0 4.57142857 0 4.57142857 0 0 Z " fill="#9D9D9D" transform="translate(205,265)"/>
<path d="M0 0 C0.99 0.33 1.98 0.66 3 1 C2.67 1.66 2.34 2.32 2 3 C2.99 3 3.98 3 5 3 C5 3.66 5 4.32 5 5 C3.35 5 1.7 5 0 5 C-0.33 5.66 -0.66 6.32 -1 7 C-1.66 7 -2.32 7 -3 7 C-1.125 1.125 -1.125 1.125 0 0 Z " fill="#CECECE" transform="translate(225,222)"/>
<path d="M0 0 C0.99 0 1.98 0 3 0 C2.67 2.31 2.34 4.62 2 7 C0.35 7 -1.3 7 -3 7 C-1.125 2.25 -1.125 2.25 0 0 Z " fill="#D4D4D4" transform="translate(471,215)"/>
<path d="M0 0 C0.66 0.33 1.32 0.66 2 1 C1.50769231 7.4 1.50769231 7.4 -1.0625 10.4375 C-1.701875 10.953125 -2.34125 11.46875 -3 12 C-3 10.02 -3 8.04 -3 6 C-2.34 5.67 -1.68 5.34 -1 5 C-0.34444881 2.47266765 -0.34444881 2.47266765 0 0 Z " fill="#F3F3F3" transform="translate(156,364)"/>
<path d="M0 0 C3.22269618 3.79817765 5.74520378 7.57391854 8 12 C7.67 12.66 7.34 13.32 7 14 C6.34 13.34 5.68 12.68 5 12 C5 11.01 5 10.02 5 9 C4.360625 8.814375 3.72125 8.62875 3.0625 8.4375 C1 7 1 7 0.25 3.375 C0.1675 2.26125 0.085 1.1475 0 0 Z " fill="#8B8B8B" transform="translate(273,302)"/>
<path d="M0 0 C0.66 0 1.32 0 2 0 C3.4606285 2.64738916 4 3.89448334 4 7 C4.99 7 5.98 7 7 7 C7 8.98 7 10.96 7 13 C0 4.79310345 0 4.79310345 0 0 Z " fill="#979797" transform="translate(213,480)"/>
<path d="M0 0 C7 8.44827586 7 8.44827586 7 12 C3.33663903 10.77887968 2.64957986 9.13279518 0.76953125 5.88671875 C0 4 0 4 0 0 Z " fill="#858585" transform="translate(192,363)"/>
<path d="M0 0 C3.875 1.75 3.875 1.75 5 4 C5.039992 5.99960012 5.04346799 8.00047242 5 10 C4.67 9.34 4.34 8.68 4 8 C3.34 8 2.68 8 2 8 C2 6.68 2 5.36 2 4 C1.34 4 0.68 4 0 4 C0 2.68 0 1.36 0 0 Z " fill="#C0C0C0" transform="translate(250,265)"/>
<path d="M0 0 C-1.20842856 4.43090471 -2.51668565 6.98112756 -6 10 C-5.71872579 8.51882199 -5.42466268 7.04006751 -5.125 5.5625 C-4.96257812 4.73878906 -4.80015625 3.91507812 -4.6328125 3.06640625 C-4.42398437 2.38449219 -4.21515625 1.70257813 -4 1 C-2 0 -2 0 0 0 Z " fill="#737373" transform="translate(362,486)"/>
<path d="M0 0 C0.66 0.33 1.32 0.66 2 1 C2 2.32 2 3.64 2 5 C0.02 5.33 -1.96 5.66 -4 6 C-4.33 5.01 -4.66 4.02 -5 3 C-4.360625 2.690625 -3.72125 2.38125 -3.0625 2.0625 C-1.06389179 1.1654837 -1.06389179 1.1654837 0 0 Z " fill="#F5F5F5" transform="translate(254,457)"/>
<path d="M0 0 C1.875 0.125 1.875 0.125 4 1 C5.25 4.0625 5.25 4.0625 6 7 C5.01 7 4.02 7 3 7 C3 6.01 3 5.02 3 4 C2.01 4 1.02 4 0 4 C0 2.68 0 1.36 0 0 Z " fill="#AFAFAF" transform="translate(302,356)"/>
<path d="M0 0 C2.63656296 1.31828148 3.24665334 2.82358672 4.6875 5.375 C5.14511719 6.16648437 5.60273438 6.95796875 6.07421875 7.7734375 C7 10 7 10 6 13 C5.34 13 4.68 13 4 13 C3.566875 11.453125 3.566875 11.453125 3.125 9.875 C2.17691202 6.54992003 1.11743406 3.27248547 0 0 Z " fill="#999999" transform="translate(172,329)"/>
<path d="M0 0 C0.75 1.6875 0.75 1.6875 1 4 C-0.875 6.5625 -0.875 6.5625 -3 9 C-3.33 9.99 -3.66 10.98 -4 12 C-4.66 12 -5.32 12 -6 12 C-4.43358249 7.69235185 -2.31663844 3.93828536 0 0 Z " fill="#C5C5C5" transform="translate(420,304)"/>
<path d="M0 0 C0.66 0.33 1.32 0.66 2 1 C1.34 2.98 0.68 4.96 0 7 C-0.99 6.67 -1.98 6.34 -3 6 C-3.33 5.01 -3.66 4.02 -4 3 C-3.34 3 -2.68 3 -2 3 C-2 2.34 -2 1.68 -2 1 C-1.34 0.67 -0.68 0.34 0 0 Z " fill="#EBEBEB" transform="translate(231,500)"/>
<path d="M0 0 C0.66 0 1.32 0 2 0 C0.43358249 4.30764815 -1.68336156 8.06171464 -4 12 C-4.33 10.68 -4.66 9.36 -5 8 C-4.01 7.67 -3.02 7.34 -2 7 C-1.855625 6.21625 -1.71125 5.4325 -1.5625 4.625 C-1 2 -1 2 0 0 Z " fill="#5C5C5C" transform="translate(239,492)"/>
<path d="M0 0 C0.96392528 2.99887865 1.35886391 5.08814875 0 8 C-2.5625 9.25 -2.5625 9.25 -5 10 C-3.66511872 6.40608886 -2.03977277 3.24509304 0 0 Z " fill="#C4C4C4" transform="translate(254,387)"/>
<path d="M0 0 C0.66 0 1.32 0 2 0 C2 1.32 2 2.64 2 4 C1.34 4 0.68 4 0 4 C0 4.99 0 5.98 0 7 C0.66 7 1.32 7 2 7 C2.33 6.34 2.66 5.68 3 5 C3 6.98 3 8.96 3 11 C1 9.875 1 9.875 -1 8 C-1.31900332 4.87376745 -1.41441874 2.82883747 0 0 Z " fill="#E3E3E3" transform="translate(227,295)"/>
<path d="M0 0 C-0.33 2.64 -0.66 5.28 -1 8 C-2.32 6.68 -3.64 5.36 -5 4 C-4.67 3.01 -4.34 2.02 -4 1 C-2 0 -2 0 0 0 Z " fill="#BEBEBE" transform="translate(214,472)"/>
<path d="M0 0 C2.0625 0.4375 2.0625 0.4375 4 1 C4 2.32 4 3.64 4 5 C2.68 5 1.36 5 0 5 C-0.5625 3.0625 -0.5625 3.0625 -1 1 C-0.67 0.67 -0.34 0.34 0 0 Z " fill="#F4F4F4" transform="translate(371,391)"/>
<path d="M0 0 C0.33 0 0.66 0 1 0 C1.1875 2.875 1.1875 2.875 1 6 C0.01 6.66 -0.98 7.32 -2 8 C-2.99 5.69 -3.98 3.38 -5 1 C-4.34 1 -3.68 1 -3 1 C-2.67 1.33 -2.34 1.66 -2 2 C-1.34 1.34 -0.68 0.68 0 0 Z " fill="#ECECEC" transform="translate(265,357)"/>
<path d="M0 0 C2.53408774 1.26704387 2.93209972 2.43123157 4.1875 4.9375 C4.55230469 5.64777344 4.91710937 6.35804688 5.29296875 7.08984375 C5.52628906 7.72019531 5.75960938 8.35054688 6 9 C5.67 9.66 5.34 10.32 5 11 C2.65808437 8.8709858 1.16445046 6.95591271 0 4 C0 2.68 0 1.36 0 0 Z " fill="#979797" transform="translate(281,316)"/>
<path d="M0 0 C0.66 0.66 1.32 1.32 2 2 C1.01 4.31 0.02 6.62 -1 9 C-1.33 8.01 -1.66 7.02 -2 6 C-2.99 6.33 -3.98 6.66 -5 7 C-5 5 -5 5 -3.625 3.375 C-2 2 -2 2 0 2 C0 1.34 0 0.68 0 0 Z " fill="#E8E8E8" transform="translate(365,473)"/>
<path d="M0 0 C0.99 0 1.98 0 3 0 C3 0.99 3 1.98 3 3 C3.99 3 4.98 3 6 3 C6 5.31 6 7.62 6 10 C2 5.5 2 5.5 2 1 C1.34 0.67 0.68 0.34 0 0 Z " fill="#EDEDED" transform="translate(198,452)"/>
<path d="M0 0 C3 1 3 1 5 4 C5.125 6.6875 5.125 6.6875 5 9 C2.9754262 7.06745228 1.57894208 5.36841312 0 3 C0 2.01 0 1.02 0 0 Z " fill="#B4B4B4" transform="translate(192,443)"/>
<path d="M0 0 C0 0.99 0 1.98 0 3 C-0.66 3 -1.32 3 -2 3 C-2.33 4.65 -2.66 6.3 -3 8 C-3.33 7.01 -3.66 6.02 -4 5 C-3.67 4.34 -3.34 3.68 -3 3 C-3.99 3 -4.98 3 -6 3 C-6 2.34 -6 1.68 -6 1 C-3 0 -3 0 0 0 Z " fill="#E6E6E6" transform="translate(463,307)"/>
<path d="M0 0 C1.875 0.1875 1.875 0.1875 4 1 C5.3125 3.375 5.3125 3.375 6 6 C5.67 6.99 5.34 7.98 5 9 C4.16396622 7.68921847 3.3312426 6.37632511 2.5 5.0625 C2.0359375 4.33160156 1.571875 3.60070312 1.09375 2.84765625 C0 1 0 1 0 0 Z " fill="#AFAFAF" transform="translate(337,298)"/>
<path d="M0 0 C1.32 0 2.64 0 4 0 C4.33 1.65 4.66 3.3 5 5 C4.34 5 3.68 5 3 5 C2.67 5.66 2.34 6.32 2 7 C0 4 0 4 0 0 Z " fill="#F4F4F4" transform="translate(459,237)"/>
<path d="M0 0 C1 3 1 3 0.00390625 5.04296875 C-0.47175781 5.75066406 -0.94742188 6.45835937 -1.4375 7.1875 C-1.91058594 7.90292969 -2.38367188 8.61835938 -2.87109375 9.35546875 C-3.24363281 9.89816406 -3.61617187 10.44085938 -4 11 C-5 8 -5 8 -4.00390625 5.95703125 C-3.52824219 5.24933594 -3.05257812 4.54164063 -2.5625 3.8125 C-2.08941406 3.09707031 -1.61632812 2.38164062 -1.12890625 1.64453125 C-0.75636719 1.10183594 -0.38382813 0.55914062 0 0 Z " fill="#535353" transform="translate(246,481)"/>
<path d="M0 0 C0.33 0.66 0.66 1.32 1 2 C0.22265625 3.7265625 0.22265625 3.7265625 -0.9375 5.625 C-1.618125 6.73875 -2.29875 7.8525 -3 9 C-3.33 9 -3.66 9 -4 9 C-4.25 6.75 -4.25 6.75 -4 4 C-2 1.6875 -2 1.6875 0 0 Z " fill="#757575" transform="translate(411,399)"/>
<path d="M0 0 C1.32 0 2.64 0 4 0 C3.71872579 1.48117801 3.42466268 2.95993249 3.125 4.4375 C2.96257812 5.26121094 2.80015625 6.08492188 2.6328125 6.93359375 C2.31957031 7.95646484 2.31957031 7.95646484 2 9 C1.01 9.495 1.01 9.495 0 10 C0.33 7.36 0.66 4.72 1 2 C0.34 1.67 -0.32 1.34 -1 1 C-0.67 0.67 -0.34 0.34 0 0 Z " fill="#B8B8B8" transform="translate(412,389)"/>
<path d="M0 0 C1.0625 1.8125 1.0625 1.8125 2 4 C1.67 4.99 1.34 5.98 1 7 C-0.32 7 -1.64 7 -3 7 C-1.125 1.125 -1.125 1.125 0 0 Z " fill="#D3D3D3" transform="translate(390,356)"/>
<path d="M0 0 C0.66 0 1.32 0 2 0 C3.0625 2.375 3.0625 2.375 4 5 C3.67 5.66 3.34 6.32 3 7 C2.01 6.67 1.02 6.34 0 6 C-1 3 -1 3 0 0 Z " fill="#F4F4F4" transform="translate(255,344)"/>
<path d="M0 0 C0.33 0.66 0.66 1.32 1 2 C0.00390625 3.9453125 0.00390625 3.9453125 -1.4375 6.125 C-1.91058594 6.84945313 -2.38367188 7.57390625 -2.87109375 8.3203125 C-3.24363281 8.87460937 -3.61617188 9.42890625 -4 10 C-4.33 9.34 -4.66 8.68 -5 8 C-2.51612903 1.25806452 -2.51612903 1.25806452 0 0 Z " fill="#767676" transform="translate(355,496)"/>
<path d="M0 0 C0.66 0 1.32 0 2 0 C1.42647107 3.87132028 -0.48704352 6.08172796 -3 9 C-3.33 7.68 -3.66 6.36 -4 5 C-3.01 4.34 -2.02 3.68 -1 3 C-0.67 2.01 -0.34 1.02 0 0 Z " fill="#E3E3E3" transform="translate(251,467)"/>
<path d="M0 0 C0.5534764 2.07553648 1 3.84365964 1 6 C-0.65 6.66 -2.3 7.32 -4 8 C-2.87548273 5.0280615 -1.77706209 2.66559313 0 0 Z " fill="#C8C8C8" transform="translate(341,441)"/>
<path d="M0 0 C0.99 0.495 0.99 0.495 2 1 C2 1.66 2 2.32 2 3 C2.66 3 3.32 3 4 3 C4.33 4.32 4.66 5.64 5 7 C3.35 7 1.7 7 0 7 C0 4.69 0 2.38 0 0 Z " fill="#EBEBEB" transform="translate(221,418)"/>
<path d="M0 0 C0.33 0.66 0.66 1.32 1 2 C-0.61000397 5.13950774 -2.38499232 7.63404067 -5 10 C-4.3001048 6.85047161 -3.34839851 3.9347497 -2 1 C-1.34 0.67 -0.68 0.34 0 0 Z " fill="#C9C9C9" transform="translate(446,336)"/>
<path d="M0 0 C1.32 0.66 2.64 1.32 4 2 C4 2.99 4 3.98 4 5 C3.21625 4.814375 2.4325 4.62875 1.625 4.4375 C-0.97089775 3.74037734 -0.97089775 3.74037734 -3 5 C-1.125 1.125 -1.125 1.125 0 0 Z " fill="#B4B4B4" transform="translate(167,324)"/>
<path d="M0 0 C0.33 0 0.66 0 1 0 C1.36666667 5.5 1.36666667 5.5 -0.375 7.875 C-2 9 -2 9 -4 9 C-2.80100302 5.9168649 -1.52299523 2.93720508 0 0 Z " fill="#CCCCCC" transform="translate(331,254)"/>
<path d="M0 0 C0.66 0 1.32 0 2 0 C1.32902328 4.19360449 -0.8558394 7.40334352 -3 11 C-3.33 10.34 -3.66 9.68 -4 9 C-3.22265625 6.8359375 -3.22265625 6.8359375 -2.0625 4.375 C-1.68222656 3.55773437 -1.30195313 2.74046875 -0.91015625 1.8984375 C-0.60980469 1.27195313 -0.30945313 0.64546875 0 0 Z " fill="#6F6F6F" transform="translate(397,218)"/>
<path d="M0 0 C0.66 0 1.32 0 2 0 C2.36923077 4.55384615 2.36923077 4.55384615 0.5 6.8125 C0.005 7.204375 -0.49 7.59625 -1 8 C-1.33 6.02 -1.66 4.04 -2 2 C-1.34 2 -0.68 2 0 2 C0 1.34 0 0.68 0 0 Z " fill="#9E9E9E" transform="translate(266,442)"/>
<path d="M0 0 C0 4.24645065 -1.81750806 6.38524772 -4 10 C-4.6875 8.3125 -4.6875 8.3125 -5 6 C-2.73846154 1.36923077 -2.73846154 1.36923077 0 0 Z " fill="#616161" transform="translate(430,367)"/>
<path d="M0 0 C0.6875 1.6875 0.6875 1.6875 1 4 C-0.3125 6.75 -0.3125 6.75 -2 9 C-2.66 9 -3.32 9 -4 9 C-2.94124926 5.59687262 -1.99097846 2.98646769 0 0 Z " fill="#C4C4C4" transform="translate(440,269)"/>
<path d="M0 0 C0.99 0.33 1.98 0.66 3 1 C3 3.31 3 5.62 3 8 C2.34 7.67 1.68 7.34 1 7 C0.59270772 4.67843403 0.25561323 2.3431213 0 0 Z " fill="#CBCBCB" transform="translate(206,465)"/>
<path d="M0 0 C0.66 1.32 1.32 2.64 2 4 C-0.97 6.475 -0.97 6.475 -4 9 C-2.80100302 5.9168649 -1.52299523 2.93720508 0 0 Z " fill="#C5C5C5" transform="translate(369,392)"/>
<path d="M0 0 C1.98 0.495 1.98 0.495 4 1 C4 1.66 4 2.32 4 3 C2.35 3.33 0.7 3.66 -1 4 C-0.67 2.68 -0.34 1.36 0 0 Z " fill="#E3E3E3" transform="translate(408,324)"/>
<path d="M0 0 C0.33 0.66 0.66 1.32 1 2 C1.66 2 2.32 2 3 2 C1.62308038 4.75383923 -0.36720042 5.51483101 -3 7 C-1.125 1.125 -1.125 1.125 0 0 Z " fill="#C7C7C7" transform="translate(428,290)"/>
<path d="M0 0 C2.22189824 2.22189824 2.92598892 4.08482708 4 7 C2.35 7 0.7 7 -1 7 C-0.67 4.69 -0.34 2.38 0 0 Z " fill="#EAEAEA" transform="translate(263,287)"/>
<path d="M0 0 C0.33 0 0.66 0 1 0 C1.36625971 4.51720311 1.36625971 4.51720311 -0.375 6.8125 C-2 8 -2 8 -4 8 C-4 7.34 -4 6.68 -4 6 C-3.34 6 -2.68 6 -2 6 C-1.7834375 5.071875 -1.7834375 5.071875 -1.5625 4.125 C-1 2 -1 2 0 0 Z " fill="#B6B6B6" transform="translate(453,246)"/>
<path d="M0 0 C0.66 0.99 1.32 1.98 2 3 C0.35 4.65 -1.3 6.3 -3 8 C-3 4.42424104 -1.91159393 2.94704065 0 0 Z " fill="#BABABA" transform="translate(213,243)"/>
</svg>
